<?xml version="1.0" encoding="utf-8"?>
<!-- Generator: Adobe Illustrator 22.1.0, SVG Export Plug-In . SVG Version: 6.00 Build 0)  -->
<svg version="1.1" id="Layer_1" xmlns="http://www.w3.org/2000/svg" xmlns:xlink="http://www.w3.org/1999/xlink" x="0px" y="0px"
	 viewBox="0 0 127 127" style="enable-background:new 0 0 127 127;" xml:space="preserve">
<g>
	<path d="M90.5,126H46.9c-2.5,0-3.1-0.5-3.1-3.1c0-0.8,0-1.5,0-2.3c0-1.2,0-2.4,0-3.6c0-0.3,0-0.6,0-1c0-0.2,0-0.4,0-0.6l0-0.1
		c0,0-1-0.1-1.5-0.2c-1-0.1-1.9-0.2-2.8-0.4c-3.7-0.4-7.4-0.8-11-1.2c-0.2,0-0.4,0-0.7-0.1c-0.2,0-0.5,0-0.8-0.1
		c-1.2-0.2-1.9-0.8-2-2.1c0-0.3,0-0.6,0-0.9c0-0.1,0-0.2,0-0.4l0-27.8L19.2,77c-0.2-0.2-0.4-0.3-0.5-0.5c-0.4-0.3-0.7-0.7-1.1-1
		c-1.1-1-1.1-1.7-0.3-2.9c1.1-1.6,2.3-3.3,3.4-4.9c0.4-0.6,0.9-1.2,1.3-1.9c0.4-0.6,0.9-1.2,1.3-1.8c1.1-1.5,2.2-3,3.3-4.6
		c0.4-0.5,0.6-1.2,0.8-2c0.3-1.6,0.6-3.1,0.7-4.5c0.1-1.1,0.9-1.8,2.2-1.8c0.4,0,0.8,0,1.2,0l33.6,0l0.8-4.5L59,42.9l-1,0.5
		c-0.6,0.3-1.3,0.7-1.9,1c-0.3,0.2-0.6,0.3-0.9,0.5c-0.7,0.4-1.4,0.7-2.1,1.2c-0.3,0.2-0.7,0.3-1,0.3c-0.5,0-1-0.2-1.3-0.6
		c-0.4-0.4-0.5-1-0.4-1.6c0.1-0.7,0.3-1.4,0.4-2.1c0.1-0.5,0.2-1.1,0.3-1.6c0.1-0.6,0.2-1.3,0.3-2l0.2-1l-3-2.9
		c-0.2-0.2-0.4-0.4-0.6-0.6c-0.5-0.4-0.9-0.9-1.4-1.3c-0.6-0.6-0.7-1.2-0.4-1.8c0.3-0.7,0.8-1.1,1.5-1.2c0.5-0.1,1-0.2,1.5-0.3
		c0.2,0,0.5-0.1,0.7-0.1l0.1,0V19.2l-0.1,0c-2.3-0.5-4-1.6-5-3.5c-0.7-1.3-1.1-2.6-0.9-3.9C44.3,8,46.3,6.1,51.2,5l0.1,0l0-0.1
		C53,2.4,55.4,1,58.2,1c2.9,0,5.3,1.4,6.9,3.9l0,0.1l0.6,0.1c0.4,0.1,0.7,0.2,1.1,0.2c2.8,0.6,4.9,2.6,5.5,5.3
		c0.7,3.2-1,6.2-3.1,7.4c-0.3,0.2-1.3,0.8-1.3,0.8v10.4l0.1,0c0.2,0,0.5,0.1,0.7,0.1c0.5,0.1,0.9,0.2,1.4,0.3
		c0.8,0.1,1.3,0.5,1.5,1.1c0.3,0.8,0.1,1.5-0.5,2.1c-0.5,0.5-1,1-1.5,1.5c-0.7,0.7-1.4,1.4-2.2,2c-0.2,0.2-0.5,0.4-0.8,0.6
		c-0.1,0.1-0.2,0.2-0.4,0.3l-0.1,0.1l0.8,4.3l0.5,0.2l0.1-0.1c5.2-8.9,12.8-13.4,22.8-13.4c0.6,0,1.2,0,1.9,0.1l0.1,0l0.1-0.1
		c0.1-0.1,0.2-0.3,0.3-0.4c0.2-0.3,0.4-0.6,0.6-0.9c2.4-3.9,5.8-6.8,10.1-8.4c0.9-0.3,1.4-0.8,1.7-1.6c0.9-2,3.1-3.4,5.4-3.4
		c0.5,0,0.9,0.1,1.3,0.2c2.7,0.7,4.6,3,4.6,5.7c0,2.6-1.4,4.7-3.8,5.6c-0.7,0.3-1.4,0.4-2.2,0.4c-1.8,0-3.5-0.8-4.6-2.2
		c-0.2-0.3-0.4-0.5-0.6-0.8c-0.1-0.1-0.3-0.4-0.3-0.4l-0.1,0c-2.7,0.3-7.1,4-8.3,6.9l-0.1,0.2l0.2,0.1c0.1,0,0.2,0.1,0.3,0.2
		c0.2,0.1,0.5,0.2,0.7,0.3c6.2,2.2,10.9,6.3,14,12.1c0.2,0.4,0.4,0.7,0.7,1c1.6,1.3,2.7,2.7,3.4,4.5l0,0.1c0,0,0.5,0.1,0.6,0.2
		c0.3,0.1,0.6,0.2,0.9,0.3c3.4,1.2,5.5,4.3,5.3,7.8c-0.2,3.9-2.8,6.8-6.6,7.4c-0.8,0.1-1.6,0.2-2.3,0.2c-2.2,0-4.4,0-6.6,0l-3.1,0
		c-1.1,0-2.2,0-3.3,0c-0.3,0-0.7,0-1.1,0c-0.2,0-0.4,0-0.6,0l-0.2,0l0,0.7c0,0.4,0,0.7,0,1.1c0,0.8,0,1.6,0,2.5c0,1.7,0,3.4,0,5.1
		c0,7.3-1,14.8-3.1,22.8c-0.3,1.1-0.5,2.1-0.8,3.2c-0.4,1.7-0.9,3.5-1.3,5.3c-0.2,1-0.3,1.9-0.3,2.9c0,3.9,0,7.8,0,11.6
		c0,1.5,0,2.9,0,4.4c0,0.1,0,0.2,0,0.3c0,0.3,0,0.7,0,1c-0.1,1.1-0.8,1.7-1.9,1.9c-0.2,0-0.4,0-0.6,0L90.5,126z M39.6,86.8
		c0.5,0,0.9,0.2,1.2,0.6c0.5,0.6,0.6,1.5,0.1,2.2c-0.1,0.2-0.3,0.4-0.6,0.6c-1.7,1.5-3.5,2.3-5.4,2.6c-1,0.1-2,0.2-3.1,0.2
		c-0.5,0-1,0-1.5,0.1c-0.3,0-0.7,0-1,0.1l-0.6,0l0,0.1c-0.3,1.9-0.2,15.6,0.1,16.6l0,0.1l0.9,0.1c0.7,0.1,1.3,0.1,2,0.2
		c1.3,0.2,2.7,0.3,4,0.5c3,0.3,6.1,0.7,9.2,1c1.8,0.2,2.4,0.8,2.4,2.6c0,1.1,0,2.3,0,3.4c0,0.9,0,1.8,0,2.8c0,0.3,0,0.6,0.1,1
		c0,0.2,0,0.3,0,0.5l0,0.2h42.2l0-0.2c0-0.2,0-0.4,0-0.6c0-0.4,0.1-0.7,0.1-1.1c0-1.6,0-3.1,0-4.7c0-3,0-6,0-9.1
		c0-0.9,0.1-1.8,0.3-2.7c0.4-1.9,1-4,1.6-6.4c2.8-10.3,4.1-20.5,3.7-30.4c0-0.9-0.1-1.9-0.2-2.9c0-0.5-0.1-0.9-0.1-1.4l0-0.1l-0.1,0
		c-3.3-1.4-5.1-4-5.4-7.7l0-0.2l-0.2,0c-0.2,0-0.3,0-0.5,0c-0.3,0-0.6-0.1-0.9-0.1c-8.7,0-17.5,0-26.2,0c-9.7,0-19.4,0-29.1,0
		c-0.3,0-0.6,0-1,0.1c-0.1,0-0.3,0-0.5,0l-0.1,0l0,0.1c0,0.3-0.1,0.5-0.1,0.7c-0.1,0.5-0.2,0.9-0.2,1.4c-0.2,1.8-0.7,3.4-1.8,4.8
		c-1.8,2.4-3.6,4.9-5.3,7.3c-0.7,0.9-1.3,1.9-2,2.8c-0.2,0.3-0.4,0.6-0.6,0.9c-0.1,0.2-0.3,0.4-0.5,0.7l-0.1,0.1l0.1,0.1
		c0.2,0.1,0.3,0.2,0.4,0.3c0.3,0.2,0.5,0.4,0.8,0.6c0.7,0.6,1.3,1.2,2,1.8c1.1,1,2.3,2,3.4,3c0.8,0.7,1.2,1.5,1.2,2.6
		c0,1.6,0,3.2,0,4.8l0,0.7c0,0.3,0,0.6,0.1,1c0,0.2,0,0.3,0.1,0.5l0,0.2H29c0.5,0,0.9,0,1.3,0c0.4,0,0.8,0,1.2,0c0.5,0,1,0,1.5,0
		c0.1,0,0.1,0,0.2,0c1.7,0,3.3-0.6,4.7-1.8l0,0c0.2-0.2,0.4-0.4,0.7-0.5C39,86.9,39.3,86.8,39.6,86.8z M111.3,59.5
		c1.3,0,2.4,0,3.3,0l0.1,0c2,0,4.2-1.4,4.4-4c0.1-1.2-0.3-2.3-1-3.1c-0.8-0.9-1.8-1.4-3-1.4c-1.4-0.1-2.1-0.7-2.5-2.1
		c-0.9-2.9-3.2-4.6-6.2-4.6c-3,0-5.3,1.7-6.2,4.6c-0.4,1.4-1.1,2-2.5,2c-2.1,0.1-3.9,1.8-4,3.9c-0.1,1.2,0.3,2.4,1.1,3.2
		c0.8,0.9,1.9,1.4,3.2,1.4c1,0,2.1,0,3.4,0c0.9,0,1.7,0,2.6,0c0.8,0,1.6,0,2.4,0l0.2,0c0.8,0,1.7,0,2.5,0
		C109.7,59.5,110.5,59.5,111.3,59.5z M89.7,40.2c-1.6,0-3.1,0.3-4.4,0.8c-4.4,1.7-8.2,6.5-7.9,10l0,0.1l0.1,0
		c0.8,0.1,1.5,0.1,2.1,0.1c0.7,0,1.4,0,2.1-0.1l0.1,0l0.2-0.5c0.1-0.3,0.2-0.6,0.4-0.8c1.2-2.8,4.2-4.7,7.3-4.7c0.4,0,0.9,0,1.3,0.1
		c1.5,0.3,2.8,0.9,4,1.8l0.1,0.1c0.3,0.3,0.6,0.5,1,0.5l0,0c0.2,0,0.4-0.1,0.6-0.2l0,0l1.9-3.2L98.7,44
		C96.9,41.7,93.4,40.2,89.7,40.2z M89.7,48.6c-1.6,0-3,0.9-3.6,2.4L86,51.2h5.1l1.2-1.7l-0.1-0.1C91.4,48.9,90.6,48.6,89.7,48.6z
		 M89.8,31.9c-2.7,0-5.4,0.5-7.9,1.6c-4.8,2-8.5,5.3-10.8,9.9c-1.4,2.8-2.1,5.1-2.1,7.5l0,0.2h4.5l0-0.1c1.3-7,5.1-11.5,11.2-13.5
		c1.8-0.6,3.7-0.9,5.4-0.9c4.2,0,8.1,1.7,11.7,5.1l0.1,0.1l4.8-1.1l-0.1-0.2C103.1,35.3,96.4,31.9,89.8,31.9z M59,39.1
		c0.5,0,1,0.2,1.5,0.5c0.5,0.3,1,0.6,1.6,0.9c0.3,0.2,0.6,0.3,1,0.5l0.3,0.2l-0.1-0.4c-0.1-0.4-0.1-0.8-0.2-1.1
		c-0.1-0.7-0.2-1.3-0.4-1.9c-0.3-1.1,0-1.9,0.8-2.6c0.4-0.4,0.9-0.8,1.4-1.4c0.1-0.1,0.2-0.3,0.4-0.5c0.1-0.1,0.1-0.2,0.2-0.3
		l0.2-0.2l-0.3,0c-0.3,0-0.5-0.1-0.8-0.1c-0.5-0.1-1-0.2-1.5-0.2c-1.5,0-2.5-0.7-3-2.1c-0.2-0.5-0.4-0.9-0.7-1.5
		c-0.1-0.3-0.3-0.5-0.5-0.8L59,27.7L58.8,28c-0.2,0.3-0.3,0.6-0.5,0.9c-0.3,0.6-0.5,1.1-0.7,1.6c-0.5,1.2-1.3,1.8-2.7,1.9
		c-0.5,0-1,0.1-1.6,0.2c-0.3,0.1-0.6,0.1-1,0.2L52,32.8c0,0,0.8,0.8,1.1,1c0.5,0.5,1,1,1.4,1.4c0.8,0.7,1,1.5,0.8,2.4
		c-0.2,0.6-0.3,1.3-0.4,1.9c0,0.3-0.1,0.6-0.1,0.8l0,0.1l0.4,0.4l0.1-0.1c0.2-0.1,0.5-0.2,0.7-0.4c0.5-0.3,1.1-0.5,1.6-0.8
		C58,39.3,58.5,39.1,59,39.1z M59,21.6c0.8,0,1.3,0.4,1.8,1.3c0.7,1.6,1.5,3.1,2.2,4.6c0.1,0.3,0.3,0.5,0.4,0.8
		c0.1,0.1,0.2,0.3,0.3,0.4l0.2,0.3l0.1-0.4c0.4-1.2,0.4-8,0-9.3l0-0.1l-1.7,0c-1.1,0-2.3,0-3.4,0c-1.8,0-3.3,0-4.8,0l-0.2,0l0,0.4
		c0,3,0,5.9,0.2,8.8l0,0.4l0.3-0.2c0.3-0.3,0.6-0.7,0.8-1.1c0.7-1.5,1.4-3,2.1-4.5C57.6,22,58.2,21.6,59,21.6L59,21.6z M110.6,17.2
		c-1.3,0-2.3,1-2.3,2.3c0,1.3,0.9,2.3,2.2,2.4c0,0,0.1,0,0.1,0c1.3,0,2.3-1,2.3-2.3c0-1.3-0.9-2.3-2.2-2.4
		C110.7,17.2,110.6,17.2,110.6,17.2z M51.3,8.8c-0.2,0-0.4,0-0.7,0c-1.3,0.1-2.2,0.8-2.8,2C47.3,11.9,47.4,13,48,14
		c0.6,1,1.7,1.6,2.9,1.6c0.8,0,1.8,0,2.9,0c0.8,0,1.5,0,2.3,0c0.7,0,1.5,0,2.2,0c0.7,0,1.5,0,2.2,0c0.7,0,1.5,0,2.2,0
		c1.1,0,2.1,0,3,0c1.9,0,3.3-1.4,3.3-3.3c0-1.9-1.3-3.4-3.3-3.5c-0.2,0-0.4,0-0.6,0c-0.1,0-0.4,0-0.4,0c-1.1,0-1.8-0.5-2.3-1.4
		c-0.8-1.8-2.2-2.7-4.1-2.7c-1.9,0-3.3,0.9-4.2,2.8c-0.4,1-1.1,1.4-2.2,1.4L51.3,8.8z"/>
	<path d="M79.2,23.4c0,0-0.1,0-0.1,0c-1.1-0.1-1.8-1.1-1.7-2.6c0.3-3.9,1.5-7.2,3.9-9.9c0.4-0.5,0.5-1,0.4-1.7
		C81.4,7.1,82,5,83.3,3.5C84.5,2,86.3,1.1,88.3,1c0.1,0,0.2,0,0.3,0c3.2,0,5.8,2,6.7,5.1c0.6,2,0.2,4.3-1,6c-1.3,1.8-3.3,2.8-5.6,3
		c-0.1,0-0.2,0-0.3,0c-1.1,0-2.2-0.3-3.2-0.9c-0.2-0.1-0.4-0.3-0.7-0.4l-0.6-0.3l-0.1,0.1c-1.2,1.2-1.9,2.7-2.4,4.7
		c-0.2,0.9-0.3,1.8-0.3,2.7C80.9,22.5,80.2,23.4,79.2,23.4z M88.6,4.6c-1.9,0-3.4,1.5-3.3,3.4c0,1.9,1.5,3.3,3.4,3.3l0,0
		c1.9,0,3.4-1.5,3.3-3.4C92,6.1,90.5,4.6,88.6,4.6L88.6,4.6z"/>
	<path d="M19.5,46.4c-0.7,0-1.3-0.1-2-0.3c-3.1-1-5-3.6-5-6.8c0-3.9,2.8-6.1,5.1-6.7c0.6-0.2,1.3-0.3,1.9-0.3c2.9,0,5.3,1.7,6.7,4.7
		l0,0.1l0.5,0.1c0.3,0.1,0.7,0.2,1,0.3c3.5,0.8,6.3,2.6,8.4,5.4c0.3,0.4,0.5,0.7,0.6,1c0.3,0.8,0.1,1.6-0.6,2.1
		c-0.3,0.2-0.7,0.4-1,0.4c-0.4,0-0.7-0.1-1.1-0.4c-0.3-0.2-0.5-0.5-0.8-0.8c-0.1-0.1-0.2-0.2-0.3-0.3c-1.7-2.1-3.9-3.3-6.5-3.8
		l-0.1,0l0,0.1c-0.8,2.4-2.2,4-4.3,4.8C21.3,46.3,20.4,46.4,19.5,46.4z M19.5,36c-0.9,0-1.8,0.4-2.4,1c-0.6,0.6-1,1.5-0.9,2.4
		c0,1.9,1.5,3.3,3.4,3.3l0,0c0.9,0,1.8-0.4,2.4-1c0.6-0.6,1-1.5,1-2.5C22.9,37.5,21.5,36,19.5,36L19.5,36z"/>
	<path d="M41.5,40.1c-0.9,0-1.7-0.8-1.8-1.8c-0.1-0.5-0.1-0.9-0.1-1.4c0-0.6-0.1-1.3-0.2-2c-0.4-2.3-1.3-4.5-2.6-6.6
		c-0.2-0.3-0.4-0.5-0.6-0.8c-0.1-0.1-0.2-0.3-0.3-0.4l-0.1-0.1l-0.1,0c-0.9,0.3-1.8,0.4-2.6,0.4c-1.1,0-2-0.3-3-0.8
		c-1.1-0.7-1.9-1.6-2.4-2.7c-1.1-2.4-0.4-5.2,1.5-6.9c1.1-0.9,2.5-1.4,3.9-1.4c1.1,0,2.2,0.3,3.1,0.9c2.6,1.6,3.3,4,2.4,7.7l0,0.1
		l0,0.1c0.3,0.6,0.7,1.3,1,1.9c0.7,1.3,1.4,2.6,2,3.9c1.1,2.4,1.5,5.1,1.7,7.7c0,0.2,0,0.3,0,0.5C43.2,39.3,42.4,40.1,41.5,40.1
		L41.5,40.1z M33.2,19.3c-0.7,0-1.3,0.2-1.7,0.7c-0.4,0.4-0.7,1-0.7,1.7c0,1.3,1,2.3,2.3,2.3l0.1,0c0.7,0,1.2-0.2,1.7-0.7
		c0.4-0.4,0.7-1,0.7-1.7C35.5,20.3,34.5,19.3,33.2,19.3L33.2,19.3z"/>
	<path d="M5.9,25.5c-0.7,0-1.3-0.4-1.6-1.1c-0.4-0.9,0-1.8,1-2.2c1.5-0.7,3.2-1.1,5.1-1.2c0.2,0,0.4,0,0.6,0c0.2,0,0.4,0,0.5,0
		c0.1,0,0.4,0,0.4,0l0.2,0c0.2,0,0.5,0,0.7,0c0.2,0,0.5,0,0.7,0c0.3,0,0.6,0,0.8,0c0.5,0,1,0.3,1.3,0.7c0.3,0.4,0.5,0.8,0.4,1.3
		c-0.1,0.9-0.8,1.5-1.8,1.5c-0.1,0-0.1,0-0.2,0c-0.4,0-0.8,0-1.2,0c-2.2,0-4.3,0.4-6.4,1.1C6.3,25.4,6.1,25.5,5.9,25.5z"/>
	<path d="M24.8,29.7c-0.2,0-0.4-0.1-0.6-0.2c-1.2-0.8-2.3-1.9-3.4-3c-0.5-0.6-0.1-1.3,0.1-1.7c0.3-0.5,0.9-0.8,1.4-0.8
		c0.1,0,0.3,0,0.4,0.1c1.5,0.6,2.7,1.6,3.7,3.2c0.1,0.1,0.1,0.2,0.1,0.3c0,0,0,0.1,0,0.1c0,0.5-0.2,1-0.5,1.3
		C25.7,29.5,25.2,29.7,24.8,29.7z"/>
	<path d="M44.2,73.7c-4.4-0.3-7.5-2.2-9.4-5.9c-0.2-0.3-0.3-0.6-0.3-0.8c-0.2-0.9,0.2-1.6,1-2c0.3-0.1,0.5-0.2,0.8-0.2
		c0.5,0,1,0.3,1.3,0.7c0.2,0.2,0.3,0.5,0.4,0.7c0.1,0.1,0.1,0.3,0.2,0.4c1.3,2.1,3.5,3.4,5.9,3.4c2.4,0,4.6-1.3,5.9-3.4
		c0.1-0.1,0.1-0.2,0.2-0.3c0.2-0.3,0.3-0.5,0.5-0.7c0.4-0.5,0.8-0.7,1.3-0.7c0.3,0,0.6,0.1,0.9,0.3c0.8,0.5,1.1,1.3,0.8,2.1
		c-1.4,3.3-3.9,5.4-7.5,6.2c-0.5,0.1-1,0.2-1.4,0.2C44.5,73.6,44.4,73.7,44.2,73.7z"/>
</g>
</svg>
