<?xml version="1.0" encoding="utf-8"?>
<!-- Generator: Adobe Illustrator 22.1.0, SVG Export Plug-In . SVG Version: 6.00 Build 0)  -->
<svg version="1.1" id="Layer_1" xmlns="http://www.w3.org/2000/svg" xmlns:xlink="http://www.w3.org/1999/xlink" x="0px" y="0px"
	 viewBox="0 0 127 127" style="enable-background:new 0 0 127 127;" xml:space="preserve">
<g>
	<path d="M1,93.3c0.9-0.9,1.8-1.9,2.8-2.6c1.5-0.9,3.4-0.5,4.7,0.7c0.6,0.5,1,1.2,1.6,1.8c1.4-1.4,1.8-2.9,1.7-4.5
		c-0.2-2.8-0.1-5.5,0.8-8.2c0.5-1.4,1.3-1.9,2.4-1.6c1.1,0.3,1.3,1.3,1.1,2.7c-0.4,2-0.8,4.1-0.7,6.1c0.1,3-0.4,5.7-2.4,7.8
		c6,6,12,12,17.8,17.8c3.2-1.2,6.4-2.4,9.7-3.7c2.4-0.9,4.4-2.4,6.2-4.2c7.5-7.5,15-15,22.5-22.4c0.7-0.7,1.3-1.5,1-2.7
		c-1.8,1.1-3.6,1.6-5.6,1.1c-0.2-0.1-0.7,0.4-0.9,0.7c-3.4,3.3-6.7,6.7-10.1,10c-0.5,0.5-1.3,0.9-2,0.9c-1.5-0.1-2-1.9-0.9-3.1
		c1.5-1.5,3-3,4.5-4.5c2-2,3.9-3.9,5.8-5.9c0.1-0.1,0.1-0.1,0.2-0.3c-0.3-0.6-0.6-1.2-0.8-1.7c-1.5,0.1-2.8,0.1-4.2,0.2
		c-0.4,0-0.8,0.3-1.1,0.6c-1.9,1.8-3.7,3.7-5.6,5.6c-1.1,1.1-2.1,1.2-3,0.3c-0.8-0.8-0.7-1.8,0.4-2.9c1.9-1.9,3.8-3.8,5.7-5.6
		c-0.4-1-0.8-1.9-1-2.8c-0.2-0.9-0.2-1.9-0.3-3.1c-1.2,1.2-2.2,2.2-3.2,3.3c-1.5,1.5-3,3.1-4.6,4.6c-1,1-2.1,1.1-2.9,0.2
		c-0.8-0.8-0.7-1.8,0.3-2.8c1.7-1.7,3.5-3.5,5.2-5.2c0.3-0.3,0.5-0.6,0.7-0.7c-1.2-1.2-2.3-2.4-3.5-3.6c-0.1,0.1-0.4,0.4-0.8,0.7
		c-4.3,4.3-8.5,8.5-12.8,12.8c-1,1-2,1.2-2.8,0.6c-0.9-0.6-0.9-1.5-0.3-2.8c1.9-4.2,3-8.6,2.3-13.3c-0.4-2.4-2-3.9-4.3-4
		c0,0.8,0,1.7,0,2.5c0.3,4.7-1.8,8.6-4.4,12.2c-0.6,0.8-1.5,1-2.4,0.5c-0.9-0.5-1.1-1.5-0.6-2.4c0.6-1,1.2-1.9,1.8-2.9
		c1.4-2.2,2.1-4.6,2-7.2c0-0.9,0-1.7,0-2.6c0-2.7,1.9-4.3,4.6-3.9c3.8,0.6,6.6,3.4,7,7.2c0.2,2.3,0,4.7-0.1,7c0,0.3-0.1,0.5-0.1,1
		c0.4-0.4,0.7-0.7,1-0.9c3-3,5.9-5.9,8.9-8.9c0.7-0.7,1-1.4,1-2.4c-0.1-3,0-5.9,0-8.9c0-0.4,0-0.7,0-1.1c0.1-1,0.8-1.6,1.8-1.6
		c1,0,1.6,0.6,1.8,1.6c0.1,0.4,0,0.8,0,1.2c0,4,0,8.1,0,12.1c0,0.4,0,0.8,0,1.2c0.2,1.2,1,2,2.2,2c1.1,0,2.1-0.8,2.3-2
		c0.1-0.4,0-0.9,0-1.3c0-5.5,0-11.1,0-16.6c0-0.4,0-0.9,0.1-1.3c0.2-1,0.9-1.5,1.9-1.4c0.9,0.1,1.6,0.7,1.7,1.7c0,0.4,0,0.8,0,1.2
		c0,8.3,0,16.6,0,24.9c0,0.5,0,1.1,0.1,1.6c0.3,1.2,1.4,2,2.6,1.9c1.2-0.1,2.2-1,2.3-2.3c0-0.4,0-0.8,0-1.2c0-7.4,0-14.8,0-22.2
		c0-0.4,0-0.9,0.1-1.3c0.3-0.9,0.9-1.4,1.8-1.3c1,0.1,1.6,0.6,1.7,1.6c0.1,0.4,0,0.8,0,1.2c0,8.6,0,17.3,0,25.9c0,0.4,0,0.8,0,1.2
		c0.2,1.3,1.2,2.2,2.5,2.2c1.3,0,2.3-0.9,2.5-2.2c0.1-0.4,0-0.9,0-1.3c0-8.5,0-17.1,0-25.6c0-0.4,0-0.7,0-1.1c0.2-1,0.7-1.5,1.7-1.6
		c1,0,1.7,0.5,1.9,1.5c0.1,0.4,0,0.8,0,1.2c0,7.3,0,14.6,0,21.8c0,0.4,0,0.8,0,1.2c0.2,1.2,1.1,2.1,2.3,2.2c1.2,0.1,2.3-0.6,2.6-1.7
		c0.2-0.5,0.2-1.1,0.2-1.7c0-10.9,0-21.7,0-32.6c0-0.4,0-0.7,0-1.1c0-1,0.5-1.7,1.5-1.9c1-0.2,1.7,0.4,2.1,1.3
		c1.1,2.2,2,4.6,3.4,6.6c1.2,1.8,2.8,3.4,4.4,4.8c1.9,1.6,4.1,1.5,6-0.1c-0.3-0.3-0.5-0.6-0.8-0.9c-3.6-3-5.5-7-6.3-11.5
		c-0.4-2.4-1-4.8-1.7-7.1c-0.8-2.8-2.4-5.1-4.6-6.9c-2.5-2-4-4.5-3.9-8c-1.3,0-2.6,0-3.9,0c-1.4,0-2.1-0.9-2-2.1
		c0.2-1.2,1-1.6,2.1-1.6c2.7,0,5.5,0,8.2,0c1.8,0,1.8,0,1.8-1.8c0-1.5,0-3.1,0-4.6c0-1.4,0.7-2.2,1.9-2.2c1.1,0,1.8,0.8,1.8,2.2
		c0,1.8,0,3.7,0,5.5c0,3-1.7,4.6-4.7,4.7c-0.4,0-0.9,0-1.4,0c-0.2,1.7,0.2,3.2,1.5,4.1c5.4,4.1,7.4,9.9,8.5,16.2
		c0.2,1.1,0.5,2.2,0.7,3.3c0.6,2.5,1.8,4.5,3.7,6.2c0.7,0.6,1.4,1.3,2,2c1.4,1.6,1.4,3.6-0.1,5.1c-2.6,2.6-6.7,3-10,0.9
		c-2.3-1.4-4.1-3.5-5.7-5.6c-0.1-0.2-0.2-0.3-0.6-0.7c0,2,0,3.7,0,5.3c0,0.2,0.4,0.4,0.6,0.6c1,0.6,2.2,1,3,1.8
		c7.7,7.6,15.4,15.3,23.1,23c2.9,2.9,4.7,6.4,5.8,10.3c0.7,2.5,1.8,4.7,3.5,6.7c0.3-0.3,0.6-0.6,0.9-0.8c2.1-2,4.5-2,6.6,0
		c0.4,0.4,0.8,0.8,1.3,1.3c0,0.5,0,1,0,1.5c-1.4,1.5-2.2,1.5-3.6,0.1c-0.7-0.8-1.2-0.7-1.9,0.1c-1,1.1-2.1,2.1-3.1,3.1
		c-1.7,1.7-3.4,3.5-5.2,5.1c-0.5,0.4-1.4,0.7-1.9,0.5c-0.5-0.1-1.1-0.9-1.2-1.5c-0.1-0.6,0.4-1.3,0.8-1.8c1.5-1.7,3.2-3.2,4.8-4.9
		c-2.3-2.8-3.8-5.9-4.7-9.3c-0.8-3-2.4-5.7-4.6-7.9c-7.6-7.6-15.2-15.2-22.8-22.8c-0.3-0.3-0.7-0.6-1.3-1c0,1.9-0.1,3.5,0,5.1
		c0,0.6,0.3,1.3,0.7,1.8c3.2,3.3,6.5,6.5,9.7,9.8c1.1,1.1,1.2,2.1,0.4,3c-0.8,0.8-1.9,0.7-3-0.4c-2.3-2.3-4.6-4.6-6.9-6.9
		c-0.3-0.3-0.5-0.5-1-0.9c0,1.2,0.1,2,0,2.9c-0.3,2.7,0,5.1,2.5,6.8c0.9,0.6,0.8,1.9,0,2.6c-0.7,0.7-1.8,0.7-2.6-0.1
		c-0.6-0.6-1.1-1.3-1.7-1.9c-1.7,1.5-3.5,2-5.5,1.7c0,0.1,0,0.2,0,0.2c1.4,1.4,2.8,2.8,4.2,4.3c0.9,0.9,0.9,1.9,0.2,2.7
		c-0.8,0.8-1.8,0.8-2.8-0.1c-0.6-0.6-1.3-1.2-1.8-1.7c-1.1,1.3-2.1,2.6-3.4,4.1c0.3,0.2,0.7,0.4,1,0.7c2.4,2.4,4.8,4.8,7.2,7.2
		c0.8,0.8,1.3,1.6,0.6,2.7c-0.6,0.9-1.5,0.9-2.7,0.4c-2-0.7-4-1.7-6.1-2c-2.4-0.4-4.9-0.5-7.4-0.3c-2.4,0.2-4.1,2.2-3.8,4.2
		c0.1,0,0.2,0.1,0.3,0.1c0.5,0,1.1,0,1.6,0c3.8-0.3,7.3,0.8,10.5,2.9c1.5,1,3.1,1.9,4.6,3c3.7,2.5,7.6,3.7,12.1,3.2
		c2.8-0.3,5.3,0.8,7.2,2.8c0.4,0.4,0.6,0.9,1,1.5c1-1.1,1.7-1.8,2.4-2.5c1.5-1.5,2.9-3,4.4-4.4c0.8-0.8,1.9-0.8,2.6-0.1
		c0.8,0.7,0.7,1.8-0.1,2.7c-0.2,0.2-0.5,0.5-0.7,0.7c-2.5,2.5-5.1,5.1-7.6,7.6c-2.4,2.4-2.4,2.4,0,4.8c1.5,1.5,1.5,2.2,0.1,3.7
		c-0.5,0-1,0-1.5,0c-1.1-1.1-2.2-2.1-3.3-3.3c-1.6-1.7-1.5-4,0-5.8c0.4-0.4,0.8-0.8,1.1-1.2c-1.6-2.3-3.7-3.3-6.4-3
		c-4.3,0.5-8.3-0.7-12-2.9c-1.9-1.2-3.8-2.3-5.7-3.6c-2.7-1.9-5.7-2.8-9.1-2.6c-2,0.1-4,0.2-5.2-2.1c-1.9,1.9-3.7,3.7-5.4,5.5
		c-3.3,3.6-7.3,6-12.1,7.2c-1.6,0.4-3,1.2-4.6,1.9c2.3,3.2,2.2,4.9-0.5,7.5c-0.8,0.8-1.6,1.5-2.4,2.3c-0.4,0-0.8,0-1.2,0
		c-1.6-1.3-1.7-2.2-0.2-3.7c0.5-0.5,0.9-1,1.5-1.5c0.9-0.7,0.8-1.3,0-2.1c-8.1-8-16.2-16.1-24.2-24.2c-0.8-0.8-1.3-0.8-2.1,0
		C3.2,96.1,2.3,96,1,94.5C1,94.1,1,93.7,1,93.3z M70.3,92.2c-0.8-0.8-1.6-1.7-2.3-2.5c-0.7,0.6-1.4,1.3-2.2,2
		C67.4,91.9,68.9,92.1,70.3,92.2z"/>
	<path d="M48.4,13.5c-0.7-0.1-1.2-0.1-1.8-0.2c-1.9-0.3-3.3-1.8-3.4-3.6c-0.1-2.3-0.1-4.6,0-6.8C43.2,1.7,44,1,44.9,1
		c1,0,1.8,0.7,1.8,1.8c0.1,1.9,0.1,3.7,0,5.6c0,1,0.4,1.3,1.4,1.3c5.2,0,10.5,0,15.7,0c0.4,0,0.8,0,1.2,0c1.1,0.1,1.6,0.7,1.7,1.7
		c0.1,0.9-0.6,1.8-1.7,1.9c-0.4,0-0.7,0-1.1,0c-3.6,0-7.2,0-10.7,0c-0.8,0-1.1,0.2-1.4,1c-0.7,2.2-1.4,4.4-2.5,6.5
		c-1.7,3.3-2.7,6.7-2.7,10.4c0,2.8,0,5.7,0,8.5c0,0.4,0.1,1-0.2,1.3c-0.5,0.5-1.1,1.1-1.7,1.2c-0.8,0.2-1.6-0.4-1.6-1.3
		c0-7.1-1.2-14.4,2.6-21.1c1-1.8,1.6-3.8,2.4-5.7C48.3,14,48.3,13.8,48.4,13.5z"/>
</g>
</svg>
