<?xml version="1.0" encoding="utf-8"?>
<!-- Generator: Adobe Illustrator 22.1.0, SVG Export Plug-In . SVG Version: 6.00 Build 0)  -->
<svg version="1.1" id="Layer_1" xmlns="http://www.w3.org/2000/svg" xmlns:xlink="http://www.w3.org/1999/xlink" x="0px" y="0px"
	 viewBox="0 0 127 127" style="enable-background:new 0 0 127 127;" xml:space="preserve">
<g>
	<path d="M1,62.9c0.2-0.3,0.4-0.6,0.7-0.8c1.1-1,2.8-0.6,3.2,0.8C5,63.1,5,63.3,5,63.5c0.1,2.3,0.3,4.6,0.4,6.9c0,1.2-0.7,2-1.8,2.1
		c-1.1,0.1-2-0.6-2.2-1.8c-0.2-1.1-0.3-2.2-0.5-3.3C1,65.9,1,64.4,1,62.9z"/>
	<path d="M59.1,125.9c-1.8-0.2-3.5-0.5-5.3-0.7c-0.4-0.1-0.7-0.1-1.1-0.2c-1.2-0.3-1.9-1.2-1.7-2.3c0.2-1.1,1.1-1.7,2.3-1.7
		c0.5,0,1,0.2,1.6,0.2c1.7,0.2,3.3,0.3,5,0.5c1,0.1,1.7,0.5,2,1.5c0.2,0.8,0,1.5-0.6,2c-0.3,0.3-0.7,0.4-1,0.6
		C59.9,125.9,59.5,125.9,59.1,125.9z"/>
	<path d="M66.7,125.9c-0.2-0.1-0.5-0.3-0.7-0.4c-0.7-0.4-1-1.1-0.9-1.9c0.1-0.8,0.5-1.5,1.4-1.7c0.7-0.2,1.4-0.2,2-0.3
		c1.7-0.2,3.5-0.5,5.2-0.6c1.5-0.1,2.6,1,2.2,2.4c-0.2,0.9-0.9,1.4-1.8,1.6c-1.6,0.2-3.3,0.4-4.9,0.6c-0.4,0.1-0.9,0.2-1.3,0.2
		C67.5,125.9,67.1,125.9,66.7,125.9z"/>
	<path d="M48.9,85.8c0.4,1.4,0.7,2.5,1,3.6c0.1,0.5,0.4,1,0.5,1.5c0.2,1.3-0.7,2.2-2,2.1c-0.2,0-0.3,0-0.5-0.1c-4-1.7-7.4-4-9.6-7.9
		c-0.3-0.5-0.8-0.9-1.3-1.2c-5-3-7.6-8.9-6.6-14.9c1-5.7,5.6-10.3,11.2-11.3c1-0.2,1.9-0.2,2.9-0.3c0.1-0.3,0.2-0.5,0.2-0.7
		c1.8-7.7,8.1-13.2,16.1-13.4c6.8-0.2,13.7-0.2,20.5,0c9,0.3,15.9,6.9,16.5,15.8c0.4,6.9-2.5,12.2-8.4,15.8
		c-0.3,0.2-0.7,0.4-1.1,0.6c-0.1,0-0.1,0.1-0.3,0.2c-2.4,5.1-6.9,8-11.9,10.1c-0.3,0.1-0.5,0.2-0.8,0.3c-1.5,0.3-2.6-0.9-2.1-2.3
		c0.4-1.5,1-2.9,1.4-4.4c0.2-0.6,0.2-1.3,0.2-2c-1,0-1.9,0-2.8,0c-0.8,1.2-1.5,2.5-2.4,3.5c-2.8,3.4-6.6,4.9-10.9,4.9
		c-2.8,0-5.5,0-8.3,0C50,85.8,49.6,85.8,48.9,85.8z M78.1,80.8c2.7-1.6,5-3.2,6.2-5.9c0.6-1.4,1.5-2.2,2.9-2.9
		c4.7-2.4,7.4-7.4,7-12.6c-0.5-6.9-6.1-12.3-13.1-12.4c-6.7-0.2-13.3-0.2-20,0c-7.6,0.2-14,7-13,15c0.2,1.2,0.5,2.3,0.8,3.4
		c0.2,1-0.2,1.9-1,2.2c-0.9,0.4-1.9,0-2.4-1c-0.2-0.3-0.3-0.7-0.4-1c-0.3-1.4-0.7-2.9-1-4.4c-0.8,0.1-1.6,0.1-2.3,0.2
		c-4,0.8-7.3,4.4-8,8.3c-0.7,4.7,1.1,9,4.9,11.1c1.4,0.7,2.2,1.7,2.9,3.1c0.8,1.6,2.1,2.7,3.6,3.7c0-1.1,0-2,0-2.9
		c0.1-1.9,0.6-2.4,2.5-2.4c3.6,0,7.2,0.1,10.7,0c1.4,0,2.9-0.3,4.2-0.7c2.1-0.7,3.7-2.1,4.9-4.2c-2,0-3.9,0-5.7,0
		c-2.3,0-4.6-0.2-6.7-1.1c-0.5-0.2-1.2-0.7-1.3-1.3c-0.2-0.5,0.1-1.3,0.4-1.8c0.4-0.6,1.1-0.7,1.9-0.5c2.6,1,5.4,1,8.2,1
		c3.7,0,7.3,0,11,0c0.3,0,0.7,0,1,0c1.3,0.1,1.9,0.6,2,1.9c0,1.3-0.1,2.6-0.1,3.9C78.3,79.8,78.2,80.1,78.1,80.8z"/>
	<path d="M100,26.2c-2,1.8-3.2,3.9-3.5,6.3c-0.3,2.3-0.1,4.7-0.1,7.2c0.4,0.1,0.9,0.2,1.3,0.2c7.3,0,14.6,0,21.8,0
		c0.4,0,0.9-0.1,1.4-0.2c0-1.9,0.1-3.7,0-5.5c-0.1-1.2-0.4-2.3-0.5-3.5c-0.2-1.3,0.4-2.2,1.6-2.3c0.9-0.1,1.6,0.4,1.9,1.4
		c0.3,1.4,0.6,2.8,0.7,4.2c0.1,1.7,0.1,3.4,0,5.1c-0.1,2.6-1.7,4.3-4.4,4.4c-1.1,0.1-2.2,0-3.3,0c-6.4,0-12.9,0-19.3,0
		c-0.9,0-1.8-0.1-2.6-0.4c-1.3-0.5-2.3-1.6-2.4-3c-0.2-3.1-0.4-6.3,0.3-9.3c0.7-3,2.3-5.5,4.6-7.5c0.2-0.2,0.4-0.3,0.6-0.5
		c-0.9-3.3-0.4-6.3,1.4-9c1.4-2.1,3.3-3.6,5.7-4.3c5.1-1.6,10.2,0.6,12.8,5.4c2.3,4.3,1.2,10.1-3.1,13.3c-2.3,1.8-5,2.5-7.9,2.1
		C104.3,29.9,102,28.5,100,26.2z M101.6,19.7c0,3.9,3.2,7.1,7,7.1c3.9,0,7.2-3.2,7.1-7.1c0-3.9-3.2-7-7.1-7
		C104.7,12.6,101.6,15.8,101.6,19.7z"/>
	<path d="M9.5,26.2c-2,1.8-3.2,3.9-3.5,6.4C5.8,34.8,6,37.2,6,39.7c0.4,0.1,0.9,0.2,1.3,0.2c7.3,0,14.6,0,21.8,0
		c0.4,0,0.9-0.1,1.5-0.2c0-1.7,0.1-3.4,0-5.1c0-1.1-0.3-2.2-0.4-3.4c0-0.3-0.1-0.6-0.1-0.8c-0.1-1.1,0.4-1.8,1.4-2
		c1-0.2,1.8,0.2,2.1,1.2c0.4,1.5,0.6,3.1,0.8,4.7c0.1,1.6,0.1,3.2,0,4.8c-0.1,2.6-1.7,4.3-4.4,4.5c-0.4,0-0.8,0-1.2,0
		c-7.1,0-14.2,0-21.2,0c-0.7,0-1.4,0-2.1-0.2c-1.7-0.4-2.9-1.6-3.1-3.3c-0.2-3.1-0.4-6.3,0.4-9.5c0.7-2.9,2.3-5.4,4.5-7.4
		c0.2-0.2,0.4-0.3,0.6-0.5c-0.9-3.2-0.4-6.3,1.4-9c1.3-2.1,3.2-3.5,5.6-4.3C19.9,7.9,25,10,27.6,14.8c2.4,4.5,1.2,10-2.9,13.4
		c-2.3,1.9-5,2.6-8,2.2C13.7,29.9,11.4,28.5,9.5,26.2z M25.2,19.7c0-3.9-3.2-7.1-7.1-7.1c-3.9,0-7.1,3.1-7.1,7
		c0,3.9,3.2,7.2,7.1,7.2C22,26.8,25.2,23.5,25.2,19.7z"/>
	<path d="M98.3,97.3c-1.6-6.9,2.4-11.8,6.7-13.2c5.1-1.7,10.5,0.3,12.9,4.8c2.7,4.8,1.6,10.3-2.8,13.8c-2.3,1.9-5,2.5-8,2.2
		c-2.9-0.4-5.2-1.9-7.1-4.1c-1.9,1.8-3.2,3.9-3.5,6.3c-0.3,2.3-0.1,4.7-0.1,7.2c0.4,0.1,0.9,0.2,1.3,0.2c7.3,0,14.6,0,21.8,0
		c0.4,0,0.9-0.1,1.4-0.2c0-0.4,0.1-0.8,0.1-1.2c-0.1-2.6,0.2-5.2-0.5-7.8c-0.4-1.3,0.2-2.1,1.3-2.4c1.1-0.2,1.9,0.3,2.2,1.5
		c0.3,1.3,0.6,2.6,0.6,4c0.1,1.7,0.1,3.5,0,5.2c-0.1,2.4-1.5,4-3.9,4.3c-0.4,0.1-0.8,0.1-1.2,0.1c-7.2,0-14.5,0-21.7,0
		c-0.6,0-1.2,0-1.8-0.2c-1.8-0.4-3.1-1.5-3.2-3.2c-0.3-3.1-0.4-6.3,0.3-9.5C94,102,95.7,99.4,98.3,97.3z M108.6,87
		c-3.9,0-7.1,3.2-7.1,7.1c0,3.9,3.2,7.1,7,7.1c3.9,0,7.2-3.3,7.1-7.2C115.7,90.2,112.5,87,108.6,87z"/>
	<path d="M9.4,100.6c-2.1,2.1-3.4,4.5-3.5,7.4c-0.1,2,0,4,0,6c1.1,0.5,23.4,0.5,24.6,0.1c0-0.3,0.1-0.6,0.1-0.9
		c-0.1-2.6,0.2-5.3-0.5-7.9c-0.4-1.3,0.2-2.1,1.2-2.4c1.1-0.3,2,0.3,2.3,1.6c0.3,1.9,0.5,3.8,0.6,5.7c0.1,1.3,0,2.5,0,3.8
		c-0.1,2-1.5,3.6-3.5,3.9c-0.4,0.1-0.8,0.1-1.2,0.1c-7.5,0-15,0-22.6,0c-0.9,0-1.8-0.3-2.6-0.6c-1.2-0.5-2-1.6-2.1-2.8
		c-0.2-3.1-0.4-6.3,0.4-9.3c0.7-3,2.3-5.4,4.6-7.5c0.2-0.2,0.4-0.3,0.5-0.4c-1.7-7.4,2.9-12.1,6.9-13.4c5.3-1.7,10.5,0.5,13.1,5.4
		c2.3,4.4,1,10.1-3.3,13.3C21,105.4,14.5,106.4,9.4,100.6z M18,87c-3.9,0-7.1,3.2-7,7.1c0,3.9,3.2,7.1,7.1,7.1
		c3.9,0,7.1-3.3,7.1-7.2C25.1,90.1,22,87,18,87z"/>
	<path d="M126,65.3c-0.2,1.7-0.3,3.5-0.5,5.2c-0.2,1.3-1,2.1-2.2,1.9c-1.1-0.1-1.8-1-1.8-2.2c0.1-2.2,0.2-4.5,0.3-6.7
		c0.1-1.4,1-2.2,2.1-2.2c1.2,0.1,1.9,0.9,1.9,2.4C126,64.3,126,64.8,126,65.3C126,65.3,126,65.3,126,65.3z"/>
	<path d="M63.4,5.1c-1.1,0-2.2,0-3.3,0c-1.3,0-2.2-0.8-2.2-1.9c0-1.1,0.8-2,2.1-2c2.4-0.1,4.7-0.1,7.1,0c1.1,0,1.7,0.8,1.8,1.8
		c0.1,1-0.5,1.8-1.3,2.1c-0.3,0.1-0.7,0.1-1.1,0.1C65.4,5.1,64.4,5.1,63.4,5.1C63.4,5.1,63.4,5.1,63.4,5.1z"/>
	<path d="M1.4,56.1c0.4-2.3,0.8-4.6,1.3-6.9C3,48,4,47.4,5.1,47.6c1.1,0.3,1.7,1.2,1.5,2.5c-0.4,2.2-0.7,4.3-1.2,6.5
		c-0.2,1.2-1.1,2-2.2,1.9C2.1,58.4,1.4,57.5,1.4,56.1z"/>
	<path d="M95.6,11c0,1.3-1.2,2.3-2.4,2c-0.2,0-0.4-0.1-0.6-0.2c-2-1-4-2-6-3c-0.2-0.1-0.4-0.2-0.6-0.4c-0.7-0.6-0.9-1.6-0.5-2.4
		c0.4-0.8,1.3-1.2,2.1-1C88,6,88.4,6.1,88.6,6.3c1.9,0.9,3.8,1.9,5.6,2.8C95.1,9.5,95.6,10.1,95.6,11z"/>
	<path d="M124.3,77.8c0,0.2-0.1,0.6-0.2,1c-0.6,1.9-1.1,3.9-1.8,5.8c-0.4,1.3-1.4,1.8-2.5,1.5c-1.1-0.3-1.7-1.4-1.3-2.6
		c0.6-2.2,1.3-4.4,2-6.6c0.3-1,1.3-1.6,2.3-1.4C123.7,75.6,124.3,76.5,124.3,77.8z"/>
	<path d="M46.3,7.5c-1.2,0-2-0.6-2.2-1.6c-0.2-1,0.2-2,1.3-2.3c1.3-0.4,2.7-0.8,4.1-1.1c1-0.2,2.1-0.5,3.1-0.6
		c1-0.1,1.9,0.5,2.2,1.5c0.3,0.9-0.2,2-1.1,2.3C51.2,6.4,48.7,7,46.3,7.5z"/>
	<path d="M74.1,1.8C76.6,2.4,79,3,81.4,3.7C82.5,4,82.9,5,82.7,6c-0.3,1-1.2,1.7-2.3,1.5c-2.3-0.5-4.7-1.1-7-1.7
		c-1.1-0.3-1.7-1.3-1.4-2.3C72.2,2.5,73,1.9,74.1,1.8z"/>
	<path d="M33.4,13.2c-1,0-1.6-0.4-1.9-1.1c-0.3-0.8-0.3-1.5,0.3-2.2c0.3-0.3,0.7-0.6,1.1-0.8c1.8-0.9,3.5-1.8,5.3-2.7
		C38.5,6.2,39,6,39.5,6c0.9,0,1.5,0.5,1.8,1.3c0.3,0.8,0.1,1.5-0.5,2.1C40.6,9.7,40.3,9.8,40,10c-1.8,0.9-3.7,1.9-5.5,2.8
		C34,13,33.6,13.1,33.4,13.2z"/>
	<path d="M125.5,56c0,1.4-0.7,2.2-1.8,2.3c-1.1,0.1-1.9-0.5-2.2-1.7c-0.4-2.2-0.8-4.5-1.2-6.7c-0.2-1.3,0.5-2.3,1.6-2.5
		c1.1-0.2,2,0.4,2.3,1.8c0.4,1.5,0.6,3.1,0.9,4.7C125.4,54.6,125.4,55.4,125.5,56z"/>
	<path d="M2.7,77.8c0-1.3,0.6-2,1.5-2.2c0.9-0.2,1.8,0.2,2.2,1.1c0.2,0.5,0.4,1.1,0.5,1.6c0.5,1.5,0.9,3,1.4,4.5
		c0.1,0.3,0.2,0.7,0.3,1.1c0.2,1.1-0.4,2-1.4,2.3c-1,0.3-2-0.1-2.4-1.2c-0.6-1.6-1.1-3.2-1.6-4.9C3,79.2,2.8,78.4,2.7,77.8z"/>
	<path d="M48.1,121.5c-0.1,1.2-1.2,2.2-2.3,1.8c-2.4-0.8-4.8-1.7-7.2-2.6c-1-0.4-1.3-1.5-0.9-2.5c0.4-0.9,1.2-1.3,2.3-1.2
		c0.2,0,0.3,0,0.5,0.1c2.1,0.8,4.2,1.5,6.3,2.3C47.8,119.9,48.2,120.5,48.1,121.5z"/>
	<path d="M80.9,123.4c-0.8,0-1.6-0.5-1.9-1.3c-0.3-0.8-0.1-1.7,0.5-2.2c0.2-0.2,0.4-0.3,0.6-0.4c2.2-0.8,4.4-1.7,6.6-2.4
		c1.1-0.4,2.1,0.2,2.5,1.1c0.4,1,0,2.1-1,2.5c-2.4,1-4.8,1.8-7.2,2.6C81.1,123.4,81,123.4,80.9,123.4z"/>
</g>
</svg>
