<?xml version="1.0" encoding="utf-8"?>
<!-- Generator: Adobe Illustrator 22.0.1, SVG Export Plug-In . SVG Version: 6.00 Build 0)  -->
<svg version="1.1" id="레이어_1" xmlns="http://www.w3.org/2000/svg" xmlns:xlink="http://www.w3.org/1999/xlink" x="0px"
	 y="0px" viewBox="0 0 22 22" style="enable-background:new 0 0 22 22;" xml:space="preserve">
<g>
	<path d="M14.2,15.7C12,17.3,9.6,17.9,7,17.4c-2.2-0.4-4-1.6-5.3-3.4c-2.7-3.6-2.2-8.5,1-11.6C5.9-0.6,10.9-0.8,14.3,2
		c3.5,2.8,4.5,8.2,1.4,12.2c0.1,0.1,0.1,0.1,0.2,0.2c1.9,1.9,3.8,3.8,5.6,5.6c0.2,0.2,0.4,0.5,0.4,0.9c0,0.5-0.2,0.8-0.6,1
		c-0.4,0.2-0.8,0.1-1.2-0.2c-0.1-0.1-0.2-0.1-0.2-0.2c-1.9-1.9-3.7-3.7-5.6-5.6C14.3,15.9,14.3,15.8,14.2,15.7z M8.8,15.4
		c3.6,0,6.6-2.9,6.6-6.6c0-3.7-2.9-6.6-6.6-6.6c-3.6,0-6.6,2.9-6.6,6.6C2.2,12.4,5.1,15.4,8.8,15.4z"/>
</g>
</svg>
