<?xml version="1.0" encoding="utf-8"?>
<!-- Generator: Adobe Illustrator 22.1.0, SVG Export Plug-In . SVG Version: 6.00 Build 0)  -->
<svg version="1.1" id="Layer_1" xmlns="http://www.w3.org/2000/svg" xmlns:xlink="http://www.w3.org/1999/xlink" x="0px" y="0px"
	 viewBox="0 0 512 512" style="enable-background:new 0 0 512 512;" xml:space="preserve">
<g>
	<path d="M90.1,1.5c110.9,0,221.8,0,332.7,0c0.4,0.3,0.8,0.7,1.2,0.7c23.9,3.1,45.7,26.2,45,54.9c-0.7,29.4-0.1,58.7-0.3,88.1
		c0,4.3,1.1,6.2,5.4,7.6c19.1,6.3,31.7,19.4,35.8,39.1c2.1,10.2,1.5,21.1,1.4,31.7c-0.1,19.1-13.7,32.4-32.8,32.7
		c-3.1,0.1-6.2,0-9.7,0c0,2.4,0,4.2,0,6c0,14.6,0,29.2,0,43.8c0,37.3,0.1,74.7-0.2,112c-0.1,15.3-6.6,28.2-18.6,37.5
		c-6.9,5.4-15.1,9.1-23.5,14c0,1.8,0.1,4.9,0,8c-0.5,20.4-13.8,33.4-34.1,33.5c-13.1,0.1-26.2,0.1-39.3,0
		c-19.1-0.2-32.5-13.6-32.9-32.7c-0.1-3.1,0-6.2,0-9.5c-42.8,0-85,0-127.5,0c0,3.8,0.1,7.3,0,10.8c-0.8,17.6-13.6,30.8-31.1,31.3
		c-14.6,0.4-29.2,0.4-43.8,0c-12.4-0.3-21.7-6.3-27.7-17.3c-3.8-7-3.6-14.7-3.8-22.3c0-1.5-1.3-4-2.5-4.3
		c-24.1-6.4-40.5-29.4-40-56.8c1-49.3,0.3-98.6,0.3-147.9c0-1.9,0-3.9,0-6.2c-2.8,0-4.9,0.3-7-0.1c-6-1-12.3-1.4-17.8-3.6
		C9,248.6,4.3,239.6,1.4,229.5c0-11,0-21.9,0-32.9c0.3-0.9,0.7-1.8,0.9-2.8c4.3-20.6,16.5-34.3,36.4-41c4.3-1.5,5.4-3.3,5.4-7.6
		c-0.1-31.2-0.2-62.4,0.1-93.6c0.2-14.9,7-26.9,18-36.9C70.2,7.4,79.8,3.9,90.1,1.5z M256.4,128.9c-44.8,0-89.6,0-134.4,0
		c-22.5,0-35.6,13-35.6,35.5c0,33-0.1,66,0,99c0,3.9,0.3,8,1.3,11.8c4.1,15.1,16.4,23.7,33.8,23.7c89.9,0,179.9,0,269.8,0
		c3.8,0,7.7-0.3,11.3-1.3c15-4,23.8-16.3,23.8-33.2c0.1-33.7,0.1-67.4,0-101c0-3.6-0.4-7.3-1.3-10.8c-4-14.9-16.2-23.6-32.8-23.6
		C347,128.9,301.7,128.9,256.4,128.9z M256.4,44c-30.2,0-60.4,0-90.6,0c-9.6,0-19.3-0.3-28.9,0.3c-12.6,0.8-21.6,7.6-26.5,18.9
		c-4.8,11.1-3.4,22.1,4,31.9c7.3,9.5,17.3,12.6,28.9,12.6c75.4-0.1,150.7,0,226.1,0c1,0,2,0,3,0C396,106.7,410.7,86,403,64.6
		c-4.7-13-16.3-20.6-32-20.6C332.8,44,294.6,44,256.4,44z M139.5,404.9c17.6,0,32.1-14.5,31.9-32c-0.2-17.3-14.6-31.6-31.8-31.6
		c-17.5,0-31.9,14.5-31.7,32.1C107.9,390.9,122.1,404.9,139.5,404.9z M405,373.2c0-17.4-14-31.6-31.5-31.8
		c-17.3-0.3-32.1,14.4-32.1,31.9c0,17.5,14.6,31.9,32.1,31.7C391,404.8,405,390.7,405,373.2z"/>
</g>
</svg>
