<?xml version="1.0" encoding="utf-8"?>
<!-- Generator: Adobe Illustrator 22.1.0, SVG Export Plug-In . SVG Version: 6.00 Build 0)  -->
<svg version="1.1" id="Layer_1" xmlns="http://www.w3.org/2000/svg" xmlns:xlink="http://www.w3.org/1999/xlink" x="0px" y="0px"
	 viewBox="0 0 360 375" style="enable-background:new 0 0 360 375;" xml:space="preserve">
<g>
	<path d="M267.1,350.5c0,2.9,0.1,5.2,0,7.4c-0.5,8.4-7.1,15-15.5,15.5c-0.9,0.1-1.7,0.1-2.6,0.1c-76.2,0-152.5,0-228.7,0
		c-9.1,0-15.4-4.4-17.6-12.2c-0.5-1.9-0.6-3.9-0.6-5.9C2,251.5,2,147.6,2,43.7c0-11.4,6.7-18.1,18.2-18.2c1.4,0,2.7,0,4.7,0
		c0-1.7,0-3.1,0-4.6C25,9.3,31.7,2.6,43.3,2.6c58.5,0,117,0,175.5,0c17.5,0,35,0,52.5,0c12.4,0,18.9,6.5,18.9,19
		c0,33.9,0,67.7,0,101.6c0,1.1,0.1,2.3-0.1,3.4c-0.4,2.7-2.1,4.3-4.8,4.4c-2.7,0.1-4.5-1.4-5.1-4c-0.3-1.5-0.3-3-0.3-4.5
		c0-33.4,0-66.7,0-100.1c0-7.8-1.8-9.6-9.8-9.6c-75.1,0-150.2,0-225.3,0c-7.9,0-9.8,1.8-9.8,9.6c0,102.9,0,205.7,0,308.6
		c0,7.7,1.8,9.4,9.5,9.4c75.2,0,150.5,0,225.7,0c7.9,0,9.6-1.7,9.6-9.7c0-4.2-0.1-8.5,0-12.7c0.1-4,1.9-6.1,5-6.2
		c3.4-0.1,5.2,2.1,5.3,6.3c0,5,0,10,0,15c-0.1,10.1-6.6,16.9-16.6,17.6C271.6,350.6,269.6,350.5,267.1,350.5z M24.9,35.7
		c-1.6,0-2.6,0-3.6,0c-7.2,0-9.2,2-9.2,9c0,102.7,0,205.5,0,308.2c0,8.7,1.7,10.4,10.2,10.4c74.9,0,149.7,0,224.6,0
		c1.4,0,2.8,0.1,4.1-0.1c3.4-0.5,5.5-2.5,5.9-5.8c0.3-2.2,0.1-4.4,0.1-6.9c-2,0-3.6,0-5.2,0c-38,0-76,0-114,0c-31.2,0-62.5,0-93.7,0
		c-6.1,0-11.4-1.5-15.3-6.4c-3.2-3.9-3.8-8.5-3.8-13.4c0-96.5,0-193,0-289.5C24.9,39.6,24.9,37.9,24.9,35.7z"/>
	<path d="M260.4,212.3c10.9-11.4,17.6-24.7,21.4-39.6c1.1-4.5,1.8-9.1,2.9-13.5c4.3-17.5,19.6-28.8,37.9-28.2
		c16.9,0.5,31.3,13.3,34.7,30.9c3.2,16.5-6.2,33.9-22.3,40.4c-14.1,5.8-27.5,12.6-38.6,23.2c-3.1,2.9-5.9,6.1-9.1,9.5
		c1.6,1.4,3,2.6,4.4,3.8c5.4,4.5,10.8,8.9,16,13.5c7.1,6.2,7.9,16.2,2.2,23.6c-2.9,3.7-6.1,7.3-9.1,10.9c-5,5.9-5.7,6.1-12.1,1.9
		c-2.3,2.7-4.6,5.5-7,8.2c-4.3,4.8-10,5.4-14.9,1.3c-21.7-18.1-43.3-36.3-64.8-54.5c-5-4.3-5.4-9.7-1.3-14.9
		c2.2-2.8,4.6-5.5,6.9-8.2c-5.1-5.5-5.1-6.5-0.4-12.1c3-3.5,5.9-7.1,8.9-10.6c6.7-7.6,16.6-8.5,24.4-2.1
		C247.2,201.1,253.7,206.7,260.4,212.3z M279,228c6.5-5.9,12.5-11.9,19.1-17.2c10-8.1,21.7-13.2,33.4-18.1c11.9-5,18-17.4,15.6-30
		c-2.3-12-13-21-25.5-21.3c-12.5-0.4-24.4,7.7-26.7,19.7c-4,21.6-11,41.7-26.6,58C272.1,222.2,275.7,225.2,279,228z M293.9,279.2
		c2.5-3,4.7-5.6,6.8-8.2c4.1-5,3.9-8.2-1.1-12.4c-9.3-7.9-18.7-15.7-28.1-23.6c-12.2-10.3-24.5-20.5-36.7-30.8
		c-3.8-3.2-7.4-3.5-10.3-0.4c-3,3.1-5.6,6.6-8.6,10C242,235.7,267.8,257.3,293.9,279.2z M208.2,235.7c21.9,18.4,43.6,36.6,65.5,54.9
		c2.6-3.1,4.9-5.8,7.4-8.8c-22-18.5-43.7-36.7-65.5-55C213.1,229.8,210.8,232.6,208.2,235.7z"/>
	<path d="M214.4,83.9c0,31.5-25.5,56.9-57.1,56.8c-31.2,0-56.7-25.6-56.7-56.9c0-31.3,25.9-57.1,57.2-56.9
		C189.1,27.2,214.5,52.7,214.4,83.9z M204.3,84c0-25.7-21-46.7-46.7-46.7c-25.7,0-46.7,20.9-46.7,46.7c0,25.7,21,46.8,46.6,46.8
		C183.2,130.7,204.2,109.7,204.3,84z"/>
	<path d="M118.8,166.3c19.9,0,39.7,0,59.6,0c1.4,0,3.1-0.3,4,0.4c1.6,1.3,3.6,3.3,3.5,4.9c0,1.6-2.2,3.4-3.8,4.8
		c-0.6,0.5-1.9,0.3-2.9,0.3c-40.2,0-80.5,0-120.7,0c-0.9,0-1.8,0.1-2.6-0.1c-2.6-0.5-4.3-2-4.4-4.8c-0.1-3,1.5-4.7,4.3-5.3
		c1.2-0.3,2.5-0.2,3.7-0.2C79.3,166.3,99,166.3,118.8,166.3z"/>
	<path d="M118.4,205.9c-19.7,0-39.5,0-59.2,0c-1.4,0-3.1,0.3-4-0.4c-1.5-1.2-3.5-3.1-3.4-4.6c0.1-1.7,2-3.6,3.5-5
		c0.7-0.7,2.4-0.3,3.6-0.3c40,0,80,0,120,0c1.1,0,2.6-0.3,3.3,0.3c1.6,1.3,3.7,3.1,3.8,4.8c0,1.6-2,3.6-3.5,4.9
		c-0.9,0.7-2.6,0.4-4,0.4C158.4,205.9,138.4,205.9,118.4,205.9z"/>
	<path d="M118.9,235.1c-19.9,0-39.7,0-59.6,0c-1.4,0-3.1,0.3-4-0.4c-1.6-1.3-3.6-3.2-3.5-4.9c0-1.7,2.2-3.4,3.7-4.8
		c0.7-0.6,2.2-0.2,3.3-0.2c40,0,80,0,120,0c0.9,0,1.8-0.1,2.6,0c2.8,0.4,4.7,1.9,4.8,4.8c0.1,3.1-1.7,4.9-4.7,5.3
		c-1.1,0.2-2.2,0.1-3.4,0.1C158.4,235.1,138.7,235.1,118.9,235.1z"/>
	<path d="M118.9,254c20.2,0,40.5,0,60.7,0c2.7,0,5,0.4,6.2,3.1c1.2,2.8-0.3,6-3.4,6.8c-1.4,0.4-3,0.3-4.5,0.3
		c-39.5,0-78.9,0-118.4,0c-0.6,0-1.2,0-1.9,0c-4.1-0.1-6.3-2-6.2-5.4c0.1-3.2,2.2-4.9,6.3-4.9C78.1,254,98.5,254,118.9,254z"/>
	<path d="M80.8,293.4c-7.6,0-15.2,0-22.8,0c-4.3,0-6.4-1.8-6.4-5.1c0-3.3,2.2-5.1,6.4-5.1c15.5,0,30.9,0,46.4,0c4.1,0,6.5,1.9,6.5,5
		c0,3.2-2.3,5.1-6.5,5.1C96.5,293.5,88.6,293.4,80.8,293.4z"/>
	<path d="M81.3,312.4c7.7,0,15.5,0,23.2,0c3.8,0,6.2,1.9,6.3,4.9c0.1,3-2.2,5.3-6,5.3c-15.8,0.1-31.7,0.1-47.5,0
		c-3.9,0-5.9-2.1-5.8-5.3c0.1-3.1,2.1-4.8,5.9-4.8C65.4,312.4,73.4,312.4,81.3,312.4z"/>
	<path d="M148.3,92.4c5.2-5.2,9.8-9.9,14.5-14.6c3.8-3.8,7.6-7.6,11.4-11.4c3.4-3.4,6.3-3.8,8.7-1.3c2.3,2.4,1.9,5.1-1.4,8.4
		c-9.3,9.4-18.7,18.7-28.1,28.1c-3.7,3.7-6.1,3.7-9.8,0c-3.5-3.5-7.1-7-10.6-10.6c-2.6-2.6-2.7-5.9-0.5-7.9c2.2-2.1,5-1.9,7.6,0.7
		C142.8,86.4,145.3,89.2,148.3,92.4z"/>
</g>
</svg>
