<?xml version="1.0" encoding="utf-8"?>
<!-- Generator: Adobe Illustrator 22.1.0, SVG Export Plug-In . SVG Version: 6.00 Build 0)  -->
<svg version="1.1" id="Layer_1" xmlns="http://www.w3.org/2000/svg" xmlns:xlink="http://www.w3.org/1999/xlink" x="0px" y="0px"
	 viewBox="0 0 384 384" style="enable-background:new 0 0 384 384;" xml:space="preserve">
<g>
	<path d="M311.8,381.7c-20.1,0-37.7-9-52.4-26.7c-1.5-1.9-4.2-3.2-6.6-3.2c-4.4-0.1-9.1-0.1-15.2-0.1c-2.5,0-5,0-7.5,0
		c-2.6,0-5.1,0-7.6,0l-20.8,0c-5.2,0-10.4,0-15.5,0c-2.1,0-3.9-0.7-5-1.9c-0.9-1.1-1.3-2.5-1-4.1c0.5-3.5,3.7-4.3,6.2-4.3
		c8.9,0,17.8,0,26.7,0l35.8,0c0.3,0,0.6-0.1,0.8-0.4c0.2-0.2,0.3-0.5,0.2-0.8l-5.2-23.6c-0.1-0.5-0.5-0.8-1-0.8l-197.6,0
		c-6.4,0-7.7-1.4-7.7-7.8c0-57.2,0-114.5,0-171.7c0-6.5,1.4-7.9,7.7-7.9h274.1c6.2,0,7.6,1.4,7.6,7.6c0,25.7,0,104.6,0,104.6v4.7
		c0,0.4,0.2,0.8,0.6,0.9l23.4,9.8c0.1,0.1,0.3,0.1,0.4,0.1c0.2,0,0.4-0.1,0.6-0.2c0.3-0.2,0.4-0.5,0.4-0.8V103.7c0-0.6-0.4-1-1-1
		l-281.6,0c-8.1,0-8.2-3.6-8.2-5.1c0-1.4,0.4-2.5,1.1-3.3c1.3-1.3,3.8-2,7.2-2l281.6,0c0.6,0,1-0.4,1-1l0-11.9c0-8.4,0-16.5,0-24.5
		c0-8.4-3.7-12.1-12-12.1c-6.8,0-13.5,0-20.3,0c-9.6,0-19.2,0-28.9,0c-0.8,0-1.6,0.1-2.4,0.1c-0.4,0-0.8,0.1-1.2,0.1l-1.2,0.1
		c-0.5,0-0.9,0.5-0.9,1l0,3.8c0,1.6,0,3.2,0,4.7c-0.2,11.3-9.1,20.1-20.2,20.1c-11.1,0-20-8.8-20.2-20.1c0-1.7,0-3.3,0-5l0-3.6
		c0-0.3-0.1-0.5-0.3-0.7s-0.4-0.3-0.7-0.3H120.9c-0.3,0-0.5,0.1-0.7,0.3c-0.2,0.2-0.3,0.4-0.3,0.7l0,3.8c0,1.7,0,3.3,0,4.8
		c-0.2,11.2-9.1,20.1-20.2,20.1c-11.1,0-20-8.9-20.2-20.2c0-1.6,0-3.3,0-5l0-3.8c0-0.3-0.1-0.5-0.3-0.7c-0.2-0.2-0.4-0.3-0.7-0.3
		l-31.4,0c-7.4,0-14.8,0-22.2,0c-8.6,0-12.3,3.7-12.3,12.2c0,91.4,0,182.7,0,274.1c0,8.6,3.7,12.2,12.3,12.2c8,0,66.4,0,66.4,0
		l18.5,0c4.7,0,9.4,0,14.1,0c3.1,0,4.8,1,5.8,3.2c0.7,1.6,0.7,3.2-0.2,4.5c-1.1,1.7-3.3,2.7-5.9,2.7c-17.7,0-35.5,0-53.2,0
		c-15.4,0-30.7,0-46.1,0c-13.4,0-22.1-8.7-22.1-22.1c0-91.7,0-183.5,0-275.2c0-13.4,8.7-22,22.1-22.1c6.4,0,12.8,0,19.2,0l34.9,0
		c0.3,0,0.5-0.1,0.7-0.3s0.3-0.4,0.3-0.7V30c0-0.7,0-1.4,0-2c0-1.3,0-2.4,0-3.5c-0.2-5.8,1.3-10.6,4.7-14.9c3.2-4,7.7-5.9,12.1-7.3
		h6.6c0.3,0.2,0.8,0.4,1.3,0.5c10.1,2.9,15.7,10.2,15.7,20.6c0,1.4,0,2.8,0,4.2l0,3.5c0,0.3,0.1,0.5,0.3,0.7
		c0.2,0.2,0.4,0.3,0.7,0.3h124.1c0.6,0,1-0.4,1-1l0-3.4c0-1.5,0-2.9,0-4.4c-0.1-6.5,1.9-11.6,6-15c2.2-1.8,4.9-3.1,7.6-4.4
		c1.1-0.5,2.3-1.1,3.4-1.7h6.4c0.3,0.2,0.8,0.4,1.3,0.5c10.1,2.9,15.7,10.2,15.7,20.6c0,1.3,0,2.6,0,4l0,3.9c0,0.3,0.1,0.5,0.3,0.7
		c0.2,0.2,0.4,0.3,0.7,0.3l27.7,0c8.7,0,17.3,0,26,0l0.3,0c1.7,0,3.4,0,4.9,0.3c10.7,1.9,17.4,10.2,17.4,21.7c0,66,0,136.5,0,208.3
		c0,3.3,0.9,5.7,2.9,8.2c6.4,7.7,10.9,16.9,13.4,27.4c0.4,1.9,0.8,3.8,1.2,5.6c0,0,0.3,1.6,0.5,2.4v14.5c-0.2,0.8-0.4,1.7-0.5,2.5
		c-0.4,1.9-0.8,3.9-1.3,5.8c-7.5,27.8-24.9,44.9-51.7,50.8C322.6,381.1,317.1,381.7,311.8,381.7z M313.5,255.7
		c-15.4,0-29.9,6-40.9,17c-10.9,10.9-17,25.4-16.9,40.9c0,31.9,26,57.8,57.8,57.8c31.8,0,57.7-25.9,57.8-57.6c0-15.5-6-30-16.9-41
		C343.5,261.7,329,255.7,313.5,255.7C313.6,255.7,313.5,255.7,313.5,255.7z M161.6,256.7c-0.6,0-1,0.4-1,1v46.5c0,0.6,0.4,1,1,1
		h42.7c0.6,0,1-0.4,1-1v-46.5c0-0.6-0.4-1-1-1H161.6z M217.2,256.7c-0.6,0-1,0.4-1,1v46.4c0,0.6,0.4,1,1,1h27.6c0.5,0,0.9-0.4,1-0.8
		l0.2-1.1c2-11.9,6-21.4,12.1-29.1c3.7-4.7,3.5-9.6,3.3-13.9l-0.1-2.5c0-0.5-0.5-1-1-1H217.2z M105.8,256.5c-0.6,0-1,0.4-1,1V304
		c0,0.6,0.4,1,1,1h42.9c0.6,0,1-0.4,1-1v-46.5c0-0.6-0.4-1-1-1H105.8z M50,256.7c-0.6,0-1,0.4-1,1V304c0,0.6,0.4,1,1,1h42.9
		c0.6,0,1-0.4,1-1v-46.3c0-0.6-0.4-1-1-1H50z M217.1,198.2c-0.6,0-1,0.4-1,1v45.6c0,0.6,0.4,1,1,1h43.2c0.6,0,1-0.4,1-1v-45.6
		c0-0.6-0.4-1-1-1H217.1z M49.9,198.1c-0.6,0-1,0.4-1,1v45.7c0,0.6,0.4,1,1,1h42.9c0.6,0,1-0.4,1-1v-45.7c0-0.6-0.4-1-1-1H49.9z
		 M105.8,198c-0.6,0-1,0.4-1,1v45.8c0,0.6,0.4,1,1,1h42.9c0.6,0,1-0.4,1-1V199c0-0.6-0.4-1-1-1H105.8z M161.7,198.1
		c-0.6,0-1,0.4-1,1v45.7c0,0.6,0.4,1,1,1h42.7c0.6,0,1-0.4,1-1v-45.7c0-0.6-0.4-1-1-1H161.7z M273.2,198.1c-0.6,0-1,0.4-1,1v45.3
		c0,0.6,0.4,1,1,1h42.9c0.6,0,1-0.4,1-1v-45.3c0-0.6-0.4-1-1-1H273.2z M161.6,138.9c-0.6,0-1,0.4-1,1v46.5c0,0.6,0.4,1,1,1h42.7
		c0.6,0,1-0.4,1-1v-46.5c0-0.6-0.4-1-1-1H161.6z M49.9,138.9c-0.6,0-1,0.4-1,1v46.4c0,0.6,0.4,1,1,1h42.9c0.6,0,1-0.4,1-1v-46.4
		c0-0.6-0.4-1-1-1H49.9z M217.2,138.9c-0.6,0-1,0.4-1,1v46.3c0,0.6,0.4,1,1,1h43.1c0.6,0,1-0.4,1-1v-46.3c0-0.6-0.4-1-1-1H217.2z
		 M273.2,139c-0.6,0-1,0.4-1,1v46.2c0,0.6,0.4,1,1,1h43c0.6,0,1-0.4,1-1V140c0-0.6-0.4-1-1-1H273.2z M105.7,138.8c-0.6,0-1,0.4-1,1
		v46.4c0,0.6,0.4,1,1,1h43.1c0.6,0,1-0.4,1-1v-46.4c0-0.6-0.4-1-1-1H105.7z M266.2,12.7c-5.6,0-9.7,4.3-9.8,10.3
		c-0.1,9.5-0.1,19.2,0,28.8c0,6.1,4.1,10.4,9.7,10.4c5.7,0,9.7-4.2,9.8-10.3c0.1-3.3,0-6.6,0-9.8c0-1.5,0-3,0-4.4c0-1.5,0-2.9,0-4.4
		c0-3.4,0-6.8,0-10.2C275.9,17,271.9,12.7,266.2,12.7C266.3,12.7,266.2,12.7,266.2,12.7z M99.7,12.7c-5.6,0-9.7,4.3-9.8,10.3
		c-0.1,3.3,0,6.6,0,9.8c0,1.5,0,3,0,4.4c0,1.5,0,3,0,4.4c0,3.3,0,6.8,0,10.2c0.1,6.1,4.1,10.4,9.7,10.4c5.7,0,9.8-4.3,9.9-10.3
		c0.1-9.1,0.1-18.6,0-28.8C109.5,17,105.5,12.8,99.7,12.7C99.8,12.7,99.7,12.7,99.7,12.7z"/>
	<path d="M37.4,102.6c-2.8,0-5.1-2.3-5.1-5.1c0-1.4,0.5-2.7,1.5-3.7c1-1,2.3-1.6,3.7-1.6c2.8,0,5.1,2.3,5.2,5.1
		c0,1.4-0.5,2.7-1.5,3.7C40.2,102.1,38.9,102.6,37.4,102.6L37.4,102.6z"/>
	<path d="M154.9,351.6c-2.8-0.1-5-2.4-4.9-5.3c0-2.8,2.3-5.1,5.1-5.1c2.8,0,5.2,2.4,5.2,5.1c0,1.3-0.5,2.6-1.5,3.6
		c-1,1-2.3,1.6-3.7,1.6L154.9,351.6z"/>
	<path d="M312,334.3c-1.4,0-3-0.9-5-2.9c-4.9-4.8-9.2-9.1-13.2-13.2c-4.6-4.7-2-7.4-1.1-8.3c1-1.1,2.2-1.6,3.4-1.6
		c1.6,0,3.4,0.9,5.1,2.7c2,2,3.9,4,5.9,6.1l0.4,0.4c0.8,0.9,1.7,1.8,2.6,2.7l0.9,1c0.2,0.2,0.4,0.3,0.7,0.3c0,0,0,0,0,0
		c0.3,0,0.5-0.1,0.7-0.3l6.2-6.2c5.3-5.3,10.4-10.4,15.5-15.5l0.7-0.7c0.8-0.8,1.6-1.6,2.4-2.2c1-0.7,2.1-1.1,3.3-1.1
		c1.3,0,2.6,0.5,3.6,1.5c1.9,1.9,2,4.7,0.3,6.8c-1,1.2-2.2,2.4-3.3,3.5l-0.1,0.1c-0.4,0.4-0.7,0.7-1.1,1.1l-4,4
		c-6.3,6.4-12.7,12.7-19.1,19C315,333.4,313.4,334.3,312,334.3z"/>
</g>
</svg>
