<?xml version="1.0" encoding="utf-8"?>
<!-- Generator: Adobe Illustrator 22.1.0, SVG Export Plug-In . SVG Version: 6.00 Build 0)  -->
<svg version="1.1" id="Layer_1" xmlns="http://www.w3.org/2000/svg" xmlns:xlink="http://www.w3.org/1999/xlink" x="0px" y="0px"
	 viewBox="0 0 379 379" style="enable-background:new 0 0 379 379;" xml:space="preserve">
<g>
	<path d="M347.9,377.5c-7.9,0-15.5-3.2-21.3-8.9c-16.9-16.7-33.9-33.7-50.3-50.1l-13.9-13.9c-3.6-3.6-7.2-7.3-10.7-10.8l-0.1-0.1
		c-1.7-1.7-3.3-3.3-4.9-5l-0.4-0.4c-0.1-0.1-0.3-0.2-0.5-0.2c-0.1,0-0.3,0-0.4,0.1l-0.5,0.3c-26,17-55.7,26-86.1,26
		c-25.2,0-50.4-6.2-72.9-17.9c-22.6-11.8-42.1-29-56.3-49.8c-21.3-31.1-30.6-69.2-26-107c4.5-37.9,22.4-72.4,50.5-97.2
		C83.2,16.7,120.5,2.5,159,2.5c37.7,0,74,13.7,102.3,38.5c30.1,26.5,48.8,63.2,52.5,103.4c3.8,41.1-8.7,81.5-35.2,113.8l-0.5,0.6
		c-0.1,0.1-0.2,0.3-0.2,0.5c0,0.2,0.1,0.4,0.3,0.5l42.1,31.1c4.5,3.3,9,6.6,13.5,9.9c10.4,7.7,21.2,15.6,31.7,23.5
		c10,7.5,14.2,20,10.7,31.8C372.5,368.9,361.1,377.5,347.9,377.5z M271.1,266.9c-0.2,0-0.3,0.1-0.5,0.2l-16.2,14.6
		c-0.1,0.1-0.2,0.3-0.2,0.5c0,0.2,0.1,0.4,0.2,0.5l1.4,1.5c0.6,0.7,1.2,1.3,1.8,1.9l42.2,42.1c3.4,3.4,6.8,6.8,10.2,10.2l0.2,0.2
		c7.5,7.6,15.3,15.4,23.1,22.9c4,3.9,9.1,6,14.5,6c9.2,0,16.9-6,19.2-15c2.1-8.1-1-15.8-8.5-21.4c-14.4-10.6-28.7-21.2-43.1-31.8
		L271.6,267C271.4,266.9,271.3,266.9,271.1,266.9z M158.1,12.3C77.7,12.5,12.3,78,12.3,158.4c0,38.9,15.2,75.6,42.9,103.3
		c27.7,27.7,64.4,42.9,103.3,42.9h0.3c80.6-0.2,146-65.8,145.9-146.3c-0.2-80.5-65.7-146-146.1-146c0,0,0,0,0,0L158.1,12.3z"/>
	<path d="M158.5,289.2c-29.7,0-57.7-9.6-80.7-27.7c-23.3-18.3-39.4-43.6-46.7-73.2c-7.7-31.5-3-64.9,13.3-93.8
		c16.3-29,42.3-50.4,73.3-60.3c1.1-0.4,2.2-0.5,3.2-0.5c2.3,0,3.8,1,4.5,3.1c0.4,1.3,0.4,2.5-0.1,3.5c-0.7,1.4-2.3,2.6-4.6,3.3
		C102.4,49.6,86,59.7,72.1,73.6c-2.2,2.2-3.2,4.5-3.2,7.5c0,22.8,0.1,45.7,0.1,68.5v0.2c0,28.1,0,57.2,0.1,85.8
		c0,2.3,1.1,5.1,2.7,6.8c22.2,23.5,53.8,36.9,86.6,36.9c33.1,0,64.9-13.6,87.2-37.4c1.4-1.5,2.3-4,2.3-6.2
		c0.1-20.7,0.1-41.8,0.1-62.2l0-32.1c0-19.6,0-39.9,0-59.9c0-3.1-0.8-5.3-2.8-7.3c-23-23.2-51-35.5-83.1-36.8l-0.9,0
		c-1,0-2.1-0.1-3.1-0.2c-3-0.4-4.7-2.4-4.5-5.2c0.2-2.8,2.1-4.4,5.2-4.4c0.5,0,1,0,1.5,0c13.1,0,25.3,1.9,36.4,5.7
		c52,17.7,82.6,53.7,91.1,106.8c5.3,33.3-3,67.1-23.5,95.1c-20.4,28-51.4,47.1-84.9,52.2C172.5,288.7,165.4,289.2,158.5,289.2
		L158.5,289.2z M258.9,92.3c-0.1,0-0.1,0-0.2,0c-0.3,0.1-0.5,0.4-0.5,0.7v130.9c0,0.3,0.2,0.6,0.5,0.7c0.1,0,0.1,0,0.2,0
		c0.2,0,0.5-0.1,0.6-0.3l1.3-2c24.7-37.6,24.7-90.2,0-127.7l-1.3-2C259.4,92.4,259.2,92.3,258.9,92.3z M58.4,92.4
		c-0.2,0-0.5,0.1-0.6,0.3l-1.3,1.9c-12.6,19.1-19,40.5-19,63.7c0,23.2,6.4,44.6,19,63.7l1.3,1.9c0.1,0.2,0.4,0.3,0.6,0.3
		c0.1,0,0.1,0,0.2,0c0.3-0.1,0.5-0.4,0.5-0.7V93.1c0-0.3-0.2-0.6-0.5-0.7C58.5,92.4,58.4,92.4,58.4,92.4z"/>
	<path d="M176.7,213.8c-14,0-28,0-42,0c-2.4,0-4.3-0.7-5.4-2.1c-0.8-1-1.1-2.3-0.8-3.7c0.5-2.7,2.5-4,5.9-4c6.6,0,13.2,0,19.7,0
		h47.6c6,0,12.1,0,18.1,0c2.9,0,6.3,0.8,6.4,4.7c0,1.4-0.4,2.6-1.2,3.4c-1.1,1.1-2.7,1.7-4.9,1.7
		C205.7,213.8,191.2,213.8,176.7,213.8z"/>
	<path d="M196,163.3c-1.4,0-2.8,0-4.1,0l-0.6,0c-1.4,0-2.8,0-4.2,0h-0.1c-1.5,0-3,0-4.5,0c-1.5,0-3,0-4.6,0c-1.9,0-3.9,0-5.8,0
		c-2,0-3.6-0.6-4.5-1.6c-0.8-0.8-1.2-2-1.1-3.4c0.1-3.8,3.1-4.6,5.7-4.6c5,0,10.1,0,15.1,0c4.9,0,9.9,0,14.8,0
		c3.5,0,5.5,1.7,5.5,4.8c0,3-1.9,4.7-5.5,4.8C199.9,163.3,197.9,163.3,196,163.3z"/>
	<path d="M153.1,87.9c-1.2,0-2.4,0-3.6,0c-1.2,0-2.4,0-3.6,0c-1.2,0-2.3,0-3.4,0l-0.2,0c-1.2,0-2.4,0-3.6,0c-1.5,0-3,0-4.4-0.1
		c-3.6-0.1-5.9-2.1-5.8-5c0.1-3,2.3-4.7,6-4.8c4,0,7.9,0,11.9,0c3.8,0,7.5,0,11.3,0c3.5,0,5.6,1.8,5.8,4.7c0.1,1.3-0.3,2.5-1.2,3.4
		c-1,1.1-2.6,1.7-4.5,1.8C156.3,87.9,154.9,87.9,153.1,87.9z"/>
	<path d="M182.6,188.5c-1.5,0-3,0-4.5,0c-3.4-0.1-5.6-2-5.6-4.8c0-2.9,2.2-4.9,5.5-5c3.9-0.1,7.9-0.1,12-0.1c3.9,0,7.9,0,11.9,0.1
		c3.4,0,5.5,1.9,5.5,4.9c0,3.1-2.1,4.9-5.8,4.9c-1.5,0-3.1,0-4.6,0c-0.6,0-7.3,0-7.3,0c-1.1,0-2.2,0-3.3,0l-0.3,0
		C184.9,188.5,183.7,188.5,182.6,188.5z"/>
	<path d="M207.7,112.9c-1.6,0-3.1,0-4.7,0c-3.3-0.1-5.2-1.8-5.3-4.7c-0.1-3,1.8-4.9,5-4.9c4-0.1,8.2-0.1,12.2-0.1
		c4.1,0,8.3,0,12.4,0.1c3.1,0.1,5.2,2.1,5.1,4.9c0,2.9-2.1,4.7-5.6,4.8c-1.5,0-3.1,0-4.6,0c-1.3,0-2.6,0-3.8,0l-3.8,0
		c-1.2,0-2.4,0-3.5,0C210.1,112.9,208.9,112.9,207.7,112.9z"/>
	<path d="M137.1,188.5c-1.1,0-2.3,0-3.4-0.1c-3.1-0.1-5.3-2.1-5.3-4.8c0-2.7,2.2-4.9,5.2-4.9c3-0.1,6.1-0.1,9.2-0.1c3,0,6,0,9.1,0.1
		c3.2,0.1,5.2,1.9,5.2,4.9c0,3-2,4.8-5.4,4.9c-1.1,0-2.3,0-3.4,0c-0.9,0-1.9,0-2.8,0c-0.9,0-1.8,0-2.7,0h-0.1c-0.9,0-1.7,0-2.6,0
		l-0.2,0C138.9,188.5,138,188.5,137.1,188.5z"/>
	<path d="M193.1,87.9c-3.4,0-6.9-0.1-10.3-0.2c-1.1-0.1-2.1-0.5-2.8-1.3c-0.9-1-1.3-2.3-1.2-3.7c0.2-2.6,2.1-4.4,4.8-4.5
		c1.1,0,2.3-0.1,3.7-0.1c1,0,2,0,3,0c1,0,2,0,3,0c1,0,1.9,0,2.8,0l0.3,0c0.9,0,1.8,0,2.7,0c1.4,0,2.5,0,3.6,0.1
		c2.8,0.1,4.6,1.9,4.7,4.5c0.1,1.4-0.4,2.8-1.2,3.7c-0.7,0.8-1.7,1.2-2.8,1.3C199.9,87.8,196.5,87.9,193.1,87.9z"/>
	<path d="M98.7,87.9c-3.4,0-6.9-0.1-10.3-0.2c-1.1-0.1-2.1-0.5-2.8-1.3c-0.8-0.9-1.3-2.3-1.2-3.7c0.2-2.6,2-4.3,4.8-4.5
		c0.1,0,0.3,0,0.4,0h8.5c0,0,0.7,0,0.7,0c1,0,1.9,0,2.9,0c1,0,1.9,0,2.8,0c1.4,0,2.5,0,3.6,0.1c2.8,0.1,4.6,1.9,4.7,4.5
		c0.1,1.4-0.4,2.8-1.2,3.7c-0.7,0.8-1.7,1.2-2.9,1.3C105.5,87.8,102.1,87.9,98.7,87.9z"/>
	<path d="M98.7,138.3c-3.1,0-6.2,0-9.3-0.1c-3.1-0.1-5-2.1-4.9-5c0.1-2.9,2.1-4.6,5.3-4.7c1.1,0,2.3,0,3.4,0c0.9,0,1.8,0,2.8,0
		l0.2,0c0.9,0,1.7,0,2.6,0c0.9,0,1.7,0,2.6,0l0.2,0c0.9,0,1.8,0,2.8,0c1.1,0,2.3,0,3.4,0c3.2,0.1,5.2,1.9,5.3,4.7
		c0.1,3-1.9,4.9-4.9,5C104.9,138.2,101.8,138.3,98.7,138.3z"/>
	<path d="M92.9,188.5c-1.1,0-2.2,0-3.3-0.1c-3.2-0.1-5.2-2-5.2-4.8c0-2.9,2-4.8,5.1-4.9c3-0.1,6-0.1,9.1-0.1c3,0,6.1,0,9.2,0.1
		c3.2,0.1,5.2,1.9,5.2,4.9c0,3-2,4.8-5.4,4.9c-1.2,0-2.4,0-3.5,0c-0.9,0-1.8,0-2.8,0l-0.2,0c-0.9,0-1.9,0-2.8,0h-0.1
		c-0.8,0-1.6,0-2.5,0l-0.3,0C94.5,188.5,93.7,188.5,92.9,188.5z"/>
	<path d="M98.8,213.7c-3.4,0-6.8-0.1-10.2-0.2c-1.3-0.1-2.3-0.5-3.1-1.4c-0.8-1-1.2-2.3-1.1-3.8c0.2-2.6,2.1-4.2,5-4.3
		c1.2,0,2.4-0.1,3.6-0.1c0.9,0,1.8,0,2.7,0l0.2,0c1,0,1.9,0,2.9,0c0.9,0,1.8,0,2.7,0l0.3,0c0.9,0,1.8,0,2.7,0c1.2,0,2.4,0,3.6,0.1
		c2.9,0.1,4.7,1.7,4.9,4.4c0.1,1.5-0.3,2.8-1.1,3.8c-0.8,0.9-1.8,1.3-3.1,1.4C105.4,213.7,102.1,213.7,98.8,213.7z"/>
	<path d="M93,238.8c-1.2,0-2.4,0-3.6-0.1c-2.9-0.1-4.7-1.7-4.9-4.4c-0.1-1.5,0.3-2.8,1.1-3.8c0.8-0.9,1.8-1.3,3.1-1.4
		c3.3-0.2,6.7-0.2,10.1-0.2c3.3,0,6.6,0.1,9.9,0.2c1.3,0.1,2.3,0.5,3.1,1.4c0.8,1,1.3,2.3,1.1,3.8c-0.2,2.6-2,4.2-4.9,4.4
		c-0.1,0-0.3,0-0.4,0l-9.1,0c-0.9,0-1.8,0-2.7,0C94.8,238.8,93.9,238.8,93,238.8z"/>
	<path d="M92.8,112.9c-1.4,0-2.5,0-3.5-0.1c-2.8-0.1-4.6-1.8-4.8-4.5c-0.1-1.4,0.3-2.7,1.2-3.6c0.8-0.9,1.9-1.3,3.2-1.4
		c3.3-0.1,6.6-0.2,9.9-0.2c3.2,0,6.5,0.1,9.8,0.2c1.3,0.1,2.4,0.5,3.2,1.4c0.8,0.9,1.3,2.2,1.2,3.6c-0.1,2.6-1.9,4.3-4.8,4.5
		c-0.2,0-0.4,0-0.6,0l-8.3,0c0,0-0.7,0-0.7,0c-1,0-1.9,0-2.9,0l-0.1,0C94.6,112.9,93.7,112.9,92.8,112.9z"/>
	<path d="M92.7,163.3c-1.4,0-2.5,0-3.5-0.1c-2.9-0.1-4.7-2-4.7-4.8c0-2.8,1.9-4.7,4.8-4.7c3.2-0.1,6.3-0.1,9.4-0.1
		c3.2,0,6.5,0,9.6,0.1c2.9,0.1,4.7,1.9,4.7,4.8c0,2.7-1.8,4.5-4.9,4.8c-0.2,0-0.4,0-0.6,0l-8.3,0l-0.7,0c0,0-0.1,0-0.1,0
		c-1,0-1.9,0-2.8,0C94.6,163.3,93.7,163.3,92.7,163.3z"/>
	<path d="M139.5,138.3c-2.2,0-4.4-0.1-6.4-0.2c-2.7-0.1-4.7-2.3-4.7-5c0.1-2.6,2.2-4.6,5-4.7c0.7,0,1.4-0.1,2.3-0.1
		c0.6,0,1.2,0,1.8,0l0.2,0c0.6,0,1.2,0,1.8,0h0.1c0.6,0,1.2,0,1.8,0c0.6,0,1.3,0,1.9,0c0.7,0,1.4,0,2.2,0c3,0.2,5.2,2.2,5.2,4.9
		c0,2.6-2.1,4.7-4.8,4.9C143.8,138.2,141.6,138.3,139.5,138.3z"/>
	<path d="M212.6,138.2c-0.6,0-1.2,0-1.8,0c-0.7,0-1.3,0-1.9,0c-0.6,0-1.2,0-1.8,0c-0.7,0-1.3,0-2,0c-0.7,0-1.5,0-2.2-0.1
		c-3.2-0.2-5.2-2-5.2-4.9c0-2.9,1.9-4.8,5.1-4.9c1.9-0.1,3.9-0.1,5.9-0.1c2,0,4,0,6,0.1c3.2,0.1,5.2,2,5.2,4.8c0,2.9-2,4.8-5.2,4.9
		C214.2,138.2,213.5,138.2,212.6,138.2z"/>
	<path d="M143.7,112.9c-0.7,0-1.3,0-2,0c0,0-2.2,0-2.2,0c-0.7,0-1.4,0-2.1,0c-0.7,0-1.4,0-2.1,0c-1,0-1.7,0-2.5-0.1
		c-2.5-0.2-4.3-2.1-4.4-4.5c-0.1-2.2,1.4-4.6,3.9-4.8c2.4-0.2,4.9-0.2,7.4-0.2c2.3,0,4.7,0.1,7,0.2c2.6,0.2,4.1,2.5,4.1,4.7
		c-0.1,2.5-2,4.5-4.6,4.7C145.4,112.9,144.6,112.9,143.7,112.9z"/>
	<path d="M139.5,163.3c-2.3,0-4.6-0.1-6.9-0.2c-2.3-0.1-4.2-2.1-4.2-4.6c0-2.5,1.9-4.6,4.5-4.8c0.7-0.1,1.5-0.1,2.5-0.1
		c0.7,0,1.4,0,2.1,0c0.4,0,1.4,0,1.4,0c0,0,0.7,0,0.7,0c0.8,0,1.5,0,2.2,0c0.8,0,1.5,0,2.2,0c1,0,1.8,0,2.6,0.1
		c2.4,0.2,4.2,2.2,4.3,4.6c0,2.5-1.8,4.6-4.1,4.7C144.4,163.2,141.9,163.3,139.5,163.3z"/>
	<path d="M176.1,138.2c-0.3,0-0.7,0-1,0l-0.3,0c0,0-0.7-0.1-0.7-0.1c-0.1,0-0.1,0-0.2,0c-0.4,0-0.8,0-1.1,0c-0.4,0-0.8,0-1.1,0
		c-0.5,0-0.8,0-1.2-0.1c-2.7-0.4-4.3-2.4-4.2-5.1c0.1-2.6,1.9-4.4,4.7-4.6c1-0.1,2-0.1,3.1-0.1c1,0,2,0,3.1,0.1
		c2.9,0.2,5,2.1,5.1,4.7c0.1,2.6-2,4.8-5,5.1C176.9,138.2,176.5,138.2,176.1,138.2z"/>
	<path d="M136.4,238.8c-0.3,0-1.1,0-1.1,0c-2.7,0-4.7-0.6-5.8-1.8c-0.8-0.8-1.1-1.8-1.1-3.1c0.1-4.2,4.3-4.9,6.8-4.9l0.7,0
		c0.5,0,0.9,0,1.4,0c1.1,0,1.8,0,2.6,0.1c3,0.4,4.7,2.3,4.6,5.1c-0.1,2.7-2,4.4-5,4.6c-0.4,0-0.7,0-1.1,0L136.4,238.8z"/>
	<path d="M169.9,238.8c-0.3,0-0.7,0-1,0c-0.4,0-0.7,0-1.1,0c-7.8,0-7.9-3.2-7.9-4.7c0-1.3,0.3-2.4,1.1-3.2c1.2-1.3,3.5-1.9,6.8-1.9
		l0.7,0c1,0,2.2,0,3.2,0.2c2.8,0.5,4.3,2.4,4.2,5.1c-0.1,2.6-1.9,4.3-4.8,4.5C170.7,238.8,170.3,238.8,169.9,238.8z"/>
	<path d="M201.4,238.8c-0.4,0-0.8,0-1.1,0c-0.4,0-0.8,0-1.2,0l-0.1,0c-3.2,0-5.4-0.6-6.6-1.8c-0.7-0.7-1.1-1.7-1.1-3.1
		c0-1.2,0-4.9,7.7-4.9h0.7c1.4,0,2.5,0,3.6,0.2c2.7,0.5,4.2,2.5,4,5.2c-0.2,2.5-1.9,4.1-4.6,4.3
		C202.3,238.8,201.9,238.8,201.4,238.8z"/>
	<path d="M174.1,112.9c-7.1,0-7.7-2.4-7.8-4.7c0-1.4,0.3-2.5,1.1-3.3c1.2-1.2,3.4-1.8,6.8-1.8c3.4,0,5.8,0.6,7,1.9
		c0.7,0.8,1.1,1.8,1.1,3.1C182.3,109.7,182.2,112.9,174.1,112.9L174.1,112.9z"/>
</g>
</svg>
