<?xml version="1.0" encoding="utf-8"?>
<!-- Generator: Adobe Illustrator 22.1.0, SVG Export Plug-In . SVG Version: 6.00 Build 0)  -->
<svg version="1.1" id="Layer_1" xmlns="http://www.w3.org/2000/svg" xmlns:xlink="http://www.w3.org/1999/xlink" x="0px" y="0px"
	 viewBox="0 0 368 320" style="enable-background:new 0 0 368 320;" xml:space="preserve">
<g>
	<path d="M84.5,222.2c-15.5,0-30.9,0-46.4-0.1c-18.4-0.1-32.5-11.7-35.7-29.7c-0.5-2.8-0.5-5.8-0.5-8.7l0-0.3c0-40.5,0-81,0-121.5
		c0-2.3,0-4.7,0-7c0-6.3-0.1-12.8,0.2-19.2C2.6,17.5,17.5,2.6,36,1.9c1.1,0,2.2-0.1,3.3-0.1l131.5,0c42.1,0,84.1,0,126.1,0
		c16.3,0,27.7,7.2,34.1,21.3c2,4.4,3.1,9.7,3.2,14.9c0.3,21.9,0.2,44.3,0.2,65.8c0,0,0,9.9,0,14.7c0,4.7-2.3,7.5-6.2,7.5
		c-3.9,0-6.2-2.7-6.2-7.5c0-11.9,0-23.7,0-35.6l0-19.6c0-0.3-0.1-0.5-0.3-0.7s-0.4-0.3-0.7-0.3H15.2c-0.6,0-1,0.4-1,1l0,40
		c0,27,0,53.9,0,80.9c0,16.2,9.3,25.6,25.5,25.6l109.1,0c0.2,0,1.8,0,2,0c0.7,0,1.1,0,1.6,0.1c3.3,0.3,5.8,3,5.8,6.2
		c0,3.2-2.5,5.8-5.9,6.1c-0.6,0.1-1.2,0.1-1.9,0.1h-0.2c-10.6,0-21.3,0-31.9,0C107.1,222.2,95.8,222.2,84.5,222.2z M38.5,14.2
		c-10.1,0-17.5,4.4-21.9,13.1c-2.8,5.6-2.6,11.4-2.4,17.1c0,1.2,0.1,2.4,0.1,3.5l0,0.8c0,0.5,0.5,1,1,1h305.4c0.6,0,1-0.4,1-1l0-3.9
		c0-2.1,0-4,0-6c-0.2-15.2-9.7-24.6-24.9-24.6c-10.8,0-110.6,0-110.6,0l-76.5,0C86,14.2,62.3,14.2,38.5,14.2
		C38.6,14.2,38.5,14.2,38.5,14.2z"/>
	<path d="M279.8,318.1c-23.1-0.1-44.7-9.1-60.9-25.4c-16.2-16.3-25.1-37.9-25-61c0.1-23,9-44.6,25.3-60.8
		c16.2-16.2,37.8-25.1,60.8-25.1l0.3,0c23.1,0.1,44.7,9.1,60.9,25.3c16.2,16.3,25.1,37.9,25,61c-0.1,23-9,44.6-25.3,60.8
		c-16.2,16.2-37.8,25.1-60.8,25.1h0L279.8,318.1z M280.1,158.2c-40.7,0-73.8,33-73.8,73.6c-0.1,40.7,33,73.9,73.6,74l0.1,0
		c40.6,0,73.8-33,73.8-73.6c0-19.7-7.6-38.3-21.5-52.2c-13.9-14-32.4-21.7-52.1-21.7C280.2,158.2,280.1,158.2,280.1,158.2z"/>
	<path d="M70.8,182.2l-16.3,0c-4.7,0-9.3,0-14,0c-3.1,0-5.2-1.3-6.2-4c-1-2.7-0.4-5,1.7-6.7c1.2-0.9,3-1.5,4.4-1.5
		c11.2-0.1,22.7-0.1,35-0.1c9.4,0,18.8,0,28.3,0.1c3.7,0,6.5,2.6,6.5,6.1c0,3.6-2.8,6.2-6.8,6.2c-4.4,0-8.7,0-13.1,0
		C87.3,182.2,70.8,182.2,70.8,182.2z"/>
	<path d="M56.2,142.3c-5,0-9.9,0-14.9-0.1c-2.5,0-4.5-0.8-5.9-2.1c-1.1-1.1-1.6-2.5-1.6-4.2c0.1-3.7,2.8-6,7.4-6.2
		c0.1,0,0.7,0,0.7,0l14.2,0c1.5,0,3,0,4.5,0l0.3,0c1.4,0,2.7,0,4.1,0c1.9,0,3.8,0,5.6,0c4.7,0.1,7.4,2.4,7.4,6.4
		c-0.1,3.8-2.8,6.1-7.2,6.1C66,142.3,61.1,142.3,56.2,142.3z"/>
	<path d="M280,262.2c-1.7,0-3.6-1.1-6-3.4l-4.3-4.3c-5.7-5.7-11.7-11.6-17.4-17.5c-1.7-1.7-2.5-3.5-2.5-5.3c0-1.5,0.7-2.9,1.9-4.1
		c1.2-1.2,2.7-1.8,4.1-1.8c1.7,0,3.5,0.8,5,2.4c4.1,4,8.1,8.1,12.3,12.3l0.1,0.1c1.8,1.8,3.5,3.6,5.4,5.5l0.6,0.6
		c0.2,0.2,0.4,0.3,0.7,0.3c0,0,0,0,0,0c0.3,0,0.5-0.1,0.7-0.3l7.8-7.8c5.8-5.8,11.4-11.4,17-17.1c2.5-2.5,5-3.9,7.1-3.9
		c1.4,0,2.7,0.6,3.9,1.8c2.8,2.9,2,6.6-2.2,10.8l-0.8,0.8c-9.1,9.1-18.2,18.2-27.3,27.2C283.7,261.1,281.8,262.2,280,262.2z"/>
</g>
</svg>
