<?xml version="1.0" encoding="utf-8"?>
<!-- Generator: Adobe Illustrator 22.1.0, SVG Export Plug-In . SVG Version: 6.00 Build 0)  -->
<svg version="1.1" id="Layer_1" xmlns="http://www.w3.org/2000/svg" xmlns:xlink="http://www.w3.org/1999/xlink" x="0px" y="0px"
	 viewBox="0 0 400 400" style="enable-background:new 0 0 400 400;" xml:space="preserve">
<g>
	<path d="M33.8,399.3c-12.1,0-20.8-4-26.4-12.4c-1.9-2.8-3.2-6.4-4.5-10.2c-0.5-1.5-1.1-3.1-1.7-4.6V29c0.3-0.6,0.4-1.2,0.5-1.9
		C3,19.6,6.5,13.4,12.7,8.3c4.1-3.4,9.1-5.1,15.3-6.6h213.2c9.9,1.8,17.3,8.3,23.8,15.1c7.4,7.7,15.4,15.8,25.3,25.3
		c7.5,7.3,11.1,16,11,26.7c-0.1,20.6-0.1,41.6-0.1,61.8c0,8.3,0,16.7,0,25v4.1c0,2.2,1.2,4.2,3.2,5.3c0.9,0.5,1.8,0.7,2.8,0.7
		c1.2,0,2.3-0.4,3.3-1c3.4-2.3,5.9-4.8,8.3-7.1c0.5-0.5,0.9-0.9,1.3-1.3c3.1-3.1,6.2-6.2,9.2-9.3c7-7.2,14.3-14.5,22-21
		c4.7-4,10.6-6.1,17-6.1c13,0,24.7,8.1,28.5,19.8c4.1,12.5,1.3,23.2-8.4,33c-28,28.1-55.5,55.6-82.6,82.5c-3.3,3.3-4.7,6.8-4.7,11.6
		c0.1,34.1,0.1,68.1,0,99.9c0,19.7-12.7,32.4-32.3,32.4c-5,0-10,0-14.9,0l-24.2,0l-101.8,0C96.6,399.3,65.2,399.3,33.8,399.3
		L33.8,399.3z M33.9,13.7c-13.3,0-20.6,7.3-20.6,20.5c0,110.9,0,221.8,0,332.7c0,13.1,7.3,20.3,20.4,20.3l117.6,0l117.6,0
		c13.2,0,20.4-7.2,20.4-20.4c0-25.2,0-50.4,0-75.6c0-1-0.1-2-0.1-2.9c0-0.4,0-0.7-0.1-1c-0.1-2-1.2-3.9-2.9-4.9
		c-0.9-0.5-2-0.8-3.1-0.8c-0.9,0-1.8,0.2-2.6,0.6c-1,0.5-1.9,1-2.8,1.5c-1.6,0.9-3.1,1.7-4.5,2.1c-7.4,2.5-14.8,5-22,7.4
		c-8.1,2.7-16.5,5.5-24.6,8.2c-1.7,0.6-3.2,0.9-4.4,0.9c-1.6,0-2.7-0.5-3.9-1.7c-1.7-1.7-2.4-3.6-0.8-8.3c2.3-6.6,4.5-13.4,6.7-19.9
		c2.9-8.7,5.8-17.6,8.9-26.3c0.9-2.5,2.4-5,4.2-6.8c16.1-16.4,32.4-32.7,47.7-47.8c3.1-3.1,4.5-6.5,4.5-10.9
		c-0.1-22-0.1-44.3-0.1-66l0-23.3c0-3.3-2.7-6-6-6l-36.1,0c-7.3,0-14.7,0-22,0c-6,0-7.9-2-7.9-8.1c0-11.9,0-23.9,0-35.8l0-22.1
		c0-3.3-2.7-6-6-6l-90.5,0L33.9,13.7z M252.8,241.2c0,0-0.8,0.6-1.2,0.8c-6.2,4.5-8.5,10.8-10.3,16.9c-1.1,3.7-2.4,7.4-3.6,11.1
		c-0.6,1.7-1.2,3.4-1.7,5c-0.8,2.3-0.1,4.7,1.6,6.3c1.1,1,2.5,1.6,4,1.6c0.8,0,1.7-0.2,2.4-0.5c3.1-1.4,6.6-2.2,10.2-3.1
		c8.5-2.1,17.3-4.2,23.5-13c1.7-2.4,1.4-5.6-0.6-7.7l-16.7-16.7c-1.1-1.1-2.6-1.8-4.2-1.8C255,240.1,253.8,240.5,252.8,241.2
		L252.8,241.2z M331.3,165.9c-1.6,0-3.1,0.6-4.2,1.7l-56.8,56.6c-1.1,1.1-1.8,2.7-1.8,4.2c0,1.6,0.6,3.1,1.7,4.2l15.8,15.8
		c1.1,1.1,2.6,1.8,4.3,1.8c1.6,0,3.1-0.6,4.2-1.7l56.9-56.6c1.1-1.1,1.8-2.7,1.8-4.2c0-1.6-0.6-3.1-1.8-4.2l-15.8-15.8
		C334.4,166.5,332.9,165.9,331.3,165.9z M368.7,132c-4.1,0-8,1.5-11,4.1c-3.5,3.1-6.6,6.5-9.6,9.8c-1.3,1.4-2.5,2.7-3.7,4
		c-2.3,2.4-2.2,6.1,0.1,8.4l16.1,16.1c1.1,1.1,2.6,1.8,4.2,1.8c1.5,0,3-0.6,4.1-1.6c1.3-1.2,2.6-2.4,3.9-3.6l0.1-0.1
		c3.2-2.9,6.5-5.9,9.5-9.3c6.3-6.9,5.9-17.3-0.9-24.1C378.2,133.9,373.5,132,368.7,132z M237.7,13.7c-1.1,0-2.2,0.1-3.3,0.3
		c-2.8,0.5-4.9,3-4.9,5.9v47.6c0,3.3,2.7,6,6,6h47.5c3,0,5.6-2.3,6-5.3c0.7-6-1.1-11.2-5.3-15.5c-13.4-13.5-23.8-23.8-33.7-33.6
		C246.5,15.6,242.3,13.7,237.7,13.7z"/>
	<path d="M221.3,133.7c-0.5,0-0.8,0-1.2,0l-161.6,0c-9.2,0-9.2-4.5-9.2-6c0-1.9,0.5-3.2,1.7-4.1c1.5-1.2,4.1-1.9,7.5-1.9l81.8,0
		l45.6,0c12,0,24.1,0,36.1,0c2.8,0,5.1,1.1,6.4,2.9c1,1.5,1.1,3.3,0.4,5.2c-1,2.4-2.6,3.6-5.4,3.9c-0.3,0-0.8,0.1-1.3,0.1
		C221.8,133.7,221.6,133.7,221.3,133.7z"/>
	<path d="M80.5,181.7l-24.4,0c-3.2,0-5.1-1.1-6.4-3.9c-0.9-2-0.4-4.5,1.3-6.3c1.3-1.4,3.1-1.9,6.2-1.9c14.9,0,29.8,0,44.7,0l59.8,0
		c4,0,8,0,12,0c4.8,0,7.6,2.2,7.6,6s-2.8,6-7.6,6c-8.2,0-16.3,0-24.5,0h0L80.5,181.7z"/>
	<path d="M80.5,229.7l-24.4,0c-3.2,0-5.1-1.1-6.4-3.9c-0.9-2-0.4-4.5,1.3-6.3c1.3-1.4,3.1-1.9,6.2-1.9c14.9,0,29.8,0,44.7,0l59.8,0
		c4,0,8,0,12,0c4.8,0,7.6,2.2,7.6,6c0,3.8-2.8,6-7.6,6c-8.2,0-16.4,0-24.5,0h0L80.5,229.7z"/>
	<path d="M80.8,277.7c-8.3,0-16.5,0-24.8-0.1c-2.5,0-4.7-1.1-5.9-2.9c-1-1.5-1.2-3.4-0.4-5.2c1.2-2.8,3-3.9,6.5-3.9l38.8,0l44.2,0
		c11.7,0,23.3,0,35,0c2.7,0,5,1.1,6.2,2.9c1,1.5,1.2,3.4,0.4,5.3c-1,2.6-3.2,3.8-6.9,3.8c-8.5,0-16.9,0-25.4,0l-33.8,0
		c-5.7,0-11.3,0-17,0l-1.3,0C91.3,277.7,86,277.7,80.8,277.7z"/>
	<path d="M208.4,351.3c-3.6,0-7.3,0-10.9,0c-3.6,0-7,0-10.5,0c-0.6,0-17.2,0-20.4,0c-5,0-10.1,0-15.1,0c-2.8,0-4.5-1.1-5.6-3.7
		c-1.1-2.4-0.9-4.2,0.7-5.6c1.7-1.6,4-2.5,5.2-2.5c11.4-0.2,23.8-0.2,38-0.2c11.5,0,22.9,0,33.5,0.1c3.5,0,6.1,2.5,6.1,5.9
		c0,3.4-2.6,6-6.3,6C218.7,351.3,214.1,351.3,208.4,351.3z"/>
</g>
</svg>
